<?xml version="1.0" standalone="no"?>
<!DOCTYPE svg PUBLIC "-//W3C//DTD SVG 1.1//EN" "http://www.w3.org/Graphics/SVG/1.1/DTD/svg11.dtd" >
<svg xmlns="http://www.w3.org/2000/svg" xmlns:xlink="http://www.w3.org/1999/xlink" version="1.1">
<metadata>
Created by FontForge 20170731 at Sat Sep  5 00:16:05 2015
 By Aleksey,,,
(c) 2014 Adobe Systems Incorporated. All Rights Reserved.
</metadata>
<defs>
<font id="AcuminPro-Regular" horiz-adv-x="400" >
  <font-face 
    font-family="Acumin Pro"
    font-weight="400"
    font-stretch="normal"
    units-per-em="1000"
    panose-1="2 11 5 4 2 2 2 2 2 4"
    ascent="750"
    descent="-250"
    x-height="507"
    cap-height="696"
    bbox="-156 -262 983 929"
    underline-thickness="50"
    underline-position="-150"
    unicode-range="U+0020-2122"
  />
<missing-glyph horiz-adv-x="500" 
d="M0 700h500v-700h-500v700zM420 650h-340l170 -255zM450 95v510l-170 -255zM420 50l-170 255l-170 -255h340zM50 95l170 255l-170 255v-510z" />
    <glyph glyph-name="f_f" unicode="ff" horiz-adv-x="555" 
d="M178 436v-436h-88v436h-81v71h81v60q0 35 6.5 67t23.5 56.5t45 39t72 14.5q14 0 27 -1.5t23 -5.5v-73q-20 6 -42 6q-37 0 -52 -24.5t-15 -75.5v-63h184v60q0 35 7 67t23.5 56.5t45 39t71.5 14.5q14 0 27 -1.5t23 -5.5v-73q-20 6 -42 6q-37 0 -52 -24.5t-15 -75.5v-63h100
v-71h-100v-436h-88v436h-184z" />
    <glyph glyph-name=".notdef" horiz-adv-x="500" 
d="M0 700h500v-700h-500v700zM420 650h-340l170 -255zM450 95v510l-170 -255zM420 50l-170 255l-170 -255h340zM50 95l170 255l-170 255v-510z" />
    <glyph glyph-name=".null" horiz-adv-x="0" 
 />
    <glyph glyph-name="nonmarkingreturn" horiz-adv-x="333" 
 />
    <glyph glyph-name="space" unicode=" " horiz-adv-x="253" 
 />
    <glyph glyph-name="space" unicode="&#xa0;" horiz-adv-x="253" 
 />
    <glyph glyph-name="exclam" unicode="!" horiz-adv-x="303" 
d="M143 234l-10 340v122h94v-123l-10 -339h-74zM135 -1v138h87v-138h-87z" />
    <glyph glyph-name="quotedbl" unicode="&#x22;" horiz-adv-x="345" 
d="M59 465l-9 184v85h83v-85l-9 -184h-65zM221 465l-8 184v85h83v-85l-10 -184h-65z" />
    <glyph glyph-name="numbersign" unicode="#" horiz-adv-x="591" 
d="M327 198h-132l-47 -198h-68l48 198h-88v73h106l38 155h-96v72h113l43 177h65l-42 -177h133l43 177h64l-42 -177h83l-1 -72h-99l-37 -155h91v-73h-108l-47 -198h-68zM383 426h-133l-37 -155h132z" />
    <glyph glyph-name="dollar" unicode="$" horiz-adv-x="520" 
d="M127 499q0 -37 21 -62t77 -44v203q-54 -5 -76 -33t-22 -64zM388 170q0 40 -22 68.5t-84 50.5v-226q106 11 106 107zM225 -97v91q-91 8 -141.5 56.5t-58.5 120.5h88q10 -47 40 -73.5t72 -33.5v242q-50 15 -85 32.5t-57.5 39t-32.5 49t-10 62.5q0 38 14 69t38.5 53.5
t58.5 36t74 16.5v68h57v-69q50 -5 84 -22t55 -40t31 -49.5t12 -49.5h-86q-4 15 -11 30t-18.5 27.5t-27.5 21.5t-39 13v-218q57 -17 95 -37t60.5 -44.5t32 -53.5t9.5 -62q0 -84 -52 -131t-145 -54v-91h-57z" />
    <glyph glyph-name="percent" unicode="%" horiz-adv-x="878" 
d="M206 670q78 0 122.5 -49.5t44.5 -137.5q0 -40 -10.5 -74.5t-32 -60t-53 -40t-73.5 -14.5q-79 0 -122 51t-43 137q0 38 10.5 72t31.5 60t52.5 41t72.5 15zM205 606q-42 0 -66.5 -31.5t-24.5 -91.5q0 -57 23.5 -91t69.5 -34q45 0 69 33t24 92t-25 91t-70 32zM192 0l428 658
h75l-428 -658h-75zM680 363q78 0 123 -49.5t45 -137.5q0 -40 -10.5 -74t-32 -59.5t-53 -40.5t-73.5 -15q-40 0 -71 14t-52 39t-32 59.5t-11 75.5q0 38 10.5 72.5t31.5 60t52.5 40.5t72.5 15zM680 299q-41 0 -66.5 -32.5t-25.5 -90.5q0 -56 23.5 -90.5t70.5 -34.5q44 0 68 33
t24 92t-24.5 91t-69.5 32z" />
    <glyph glyph-name="ampersand" unicode="&#x26;" horiz-adv-x="745" 
d="M255 68q23 0 43 4.5t39 15.5t38.5 29.5t41.5 46.5l-170 167q-32 -21 -52.5 -38.5t-32.5 -35t-16.5 -35.5t-4.5 -39q0 -23 8.5 -44t24 -36.5t36.5 -25t45 -9.5zM696 441l-177 -260l184 -181h-119l-114 112q-23 -30 -46.5 -52.5t-49.5 -38t-57 -23.5t-69 -8q-49 0 -86 16
t-62 42t-37.5 59t-12.5 67q0 30 7.5 56t25 50.5t46 48.5t71.5 50q-19 19 -34 37t-26 37t-17 39.5t-6 44.5q0 34 11.5 64.5t34 53.5t55 37t74.5 14q39 0 70 -13t52.5 -34.5t33.5 -50.5t12 -62q0 -26 -8 -48.5t-24.5 -43t-42.5 -40.5t-61 -41l141 -139l137 207h94zM291 638
q-41 0 -65.5 -25t-24.5 -71q0 -31 19.5 -59t57.5 -66q30 20 49.5 36t30.5 31t15.5 29.5t4.5 31.5q0 36 -21.5 64.5t-65.5 28.5z" />
    <glyph glyph-name="quotesingle" unicode="'" horiz-adv-x="178" 
d="M53 465l-8 184v85h88v-85l-8 -184h-72z" />
    <glyph glyph-name="parenleft" unicode="(" horiz-adv-x="337" 
d="M298 734q-33 -43 -61.5 -92t-50 -105t-34 -118.5t-12.5 -131.5q0 -128 41 -243.5t117 -215.5h-89q-29 38 -56 86t-48 105.5t-34 125t-13 143.5q0 75 13 140t34.5 121t48.5 102.5t55 82.5h89z" />
    <glyph glyph-name="parenright" unicode=")" horiz-adv-x="337" 
d="M39 -172q33 43 61.5 92t50 105t34 118.5t12.5 131.5q0 128 -41 243.5t-117 215.5h90q28 -38 55 -86t48 -106t34 -125t13 -143q0 -75 -13 -140t-34.5 -121t-48.5 -102.5t-54 -82.5h-90z" />
    <glyph glyph-name="asterisk" unicode="*" horiz-adv-x="401" 
d="M236 696l-13 -148l115 92l39 -65l-141 -64l140 -65l-38 -66l-116 94l15 -150h-74l14 150l-114 -94l-38 66l140 65l-141 64l39 65l113 -92l-12 148h72z" />
    <glyph glyph-name="plus" unicode="+" horiz-adv-x="699" 
d="M389 556v-236h234v-78h-234v-242h-79v242h-235v78h235v236h79z" />
    <glyph glyph-name="comma" unicode="," horiz-adv-x="210" 
d="M3 -115q40 85 54 149.5t18 112.5h89q-3 -33 -11 -68.5t-19 -70t-26 -66t-33 -57.5h-72z" />
    <glyph glyph-name="hyphen" unicode="-" horiz-adv-x="378" 
d="M320 296v-80h-262v80h262z" />
    <glyph glyph-name="period" unicode="." horiz-adv-x="203" 
d="M55 0v148h92v-148h-92z" />
    <glyph glyph-name="slash" unicode="/" horiz-adv-x="447" 
d="M45 -51l279 757h79l-280 -757h-78z" />
    <glyph glyph-name="zero" unicode="0" horiz-adv-x="559" 
d="M282 670q66 0 110 -29t70 -76t36.5 -107.5t10.5 -123.5q0 -61 -10 -123t-36 -111.5t-70.5 -80.5t-113.5 -31q-68 0 -112 29.5t-70.5 77.5t-37 109t-10.5 125q0 63 11.5 124.5t38.5 109.5t71.5 77.5t111.5 29.5zM283 595q-43 0 -70.5 -21t-43 -57.5t-21.5 -85t-6 -102.5
q0 -47 5 -94.5t20 -85.5t42 -62t71 -24q43 0 70 23t42 61t20 86.5t5 99.5q0 48 -5 94.5t-20 84t-41 60.5t-68 23z" />
    <glyph glyph-name="one" unicode="1" horiz-adv-x="364" 
d="M176 0v553q-12 -9 -29.5 -18t-36.5 -16.5t-37.5 -13.5t-32.5 -9v71q38 11 82 36.5t78 57.5h66v-661h-90z" />
    <glyph glyph-name="two" unicode="2" horiz-adv-x="525" 
d="M45 0v5q0 72 47.5 145.5t150.5 151.5q40 30 66 51.5t41 40.5t21 39.5t6 47.5q0 50 -27 82.5t-87 32.5t-90 -30.5t-41 -91.5h-86q4 42 20 78t43 62t65.5 41t88.5 15q55 0 94 -16.5t64 -42.5t36 -60t11 -68q0 -38 -8.5 -65.5t-28 -53t-50.5 -52.5t-77 -62q-69 -53 -106 -94
t-49 -79h345l-13 -77h-436z" />
    <glyph glyph-name="three" unicode="3" horiz-adv-x="550" 
d="M63 501q4 30 17.5 60.5t38.5 54.5t62.5 39t90.5 15q51 0 88.5 -14.5t61.5 -38t36 -54.5t12 -64q0 -30 -8 -53t-20.5 -39.5t-28 -27t-30.5 -16.5v-2q22 -7 43 -20t37 -33.5t25.5 -48t9.5 -64.5q0 -39 -12.5 -76.5t-40 -66.5t-71 -46.5t-104.5 -17.5q-57 0 -97.5 16
t-67.5 42t-41.5 58.5t-18.5 65.5h87q5 -22 16 -41.5t28 -34.5t41.5 -24t56.5 -9q35 0 60.5 11t42 29t24 42t7.5 51q0 66 -38 97t-105 31h-47v72h39q66 0 95 25t29 77q0 45 -28.5 72.5t-83.5 27.5q-30 0 -50.5 -7.5t-34.5 -20t-22.5 -30t-13.5 -37.5h-85z" />
    <glyph glyph-name="four" unicode="4" horiz-adv-x="539" 
d="M345 0v169h-309v80l299 409h94v-413h85l-9 -76h-76v-169h-84zM345 411q0 38 0.5 82.5t1.5 76.5q-10 -19 -36.5 -58.5t-59.5 -86.5t-67.5 -95t-61.5 -85h223v166z" />
    <glyph glyph-name="five" unicode="5" horiz-adv-x="545" 
d="M467 582h-275q-2 -20 -6 -47l-8 -54t-8 -50.5t-7 -36.5q21 23 54 38t84 15q45 0 81.5 -15t62.5 -43.5t40 -69t14 -91.5q0 -48 -13 -91.5t-40.5 -76.5t-70.5 -52.5t-103 -19.5q-88 0 -147 46t-72 131h89q11 -45 43.5 -74.5t89.5 -29.5q68 0 101 44t33 117q0 32 -7 59.5
t-22 47.5t-39.5 31.5t-58.5 11.5q-59 0 -88.5 -23t-46.5 -63l-82 15q7 32 15.5 80.5t16 99.5t13.5 98.5t9 78.5h361z" />
    <glyph glyph-name="six" unicode="6" horiz-adv-x="549" 
d="M398 515q-10 35 -35 59t-76 24q-42 0 -70 -18.5t-45.5 -51t-25.5 -77t-9 -96.5q10 18 24.5 34.5t35 29t47 20.5t60.5 8q48 0 85.5 -16.5t63.5 -46t39.5 -69.5t13.5 -87q0 -49 -14.5 -92.5t-42.5 -76.5t-69.5 -52t-95.5 -19q-68 0 -113.5 26t-72.5 71t-38 105.5t-11 129.5
q0 68 12 131.5t40.5 112t74.5 77.5t115 29q50 0 85.5 -14.5t58.5 -37.5t35 -50.5t15 -52.5h-87zM283 62q36 0 61 13.5t40.5 35.5t23 50.5t7.5 59.5q0 28 -6 55t-20.5 48.5t-39.5 35t-63 13.5q-62 0 -100.5 -38t-38.5 -113q0 -20 6 -47.5t21 -52.5t41.5 -42.5t67.5 -17.5z
" />
    <glyph glyph-name="seven" unicode="7" horiz-adv-x="476" 
d="M453 658v-72q-43 -58 -83.5 -129.5t-74.5 -148.5t-59.5 -156t-37.5 -152h-91q11 70 37 150t61 158t75 149t80 124h-339v77h432z" />
    <glyph glyph-name="eight" unicode="8" horiz-adv-x="551" 
d="M272 -12q-48 0 -89.5 14t-72 39.5t-48 62t-17.5 82.5q0 35 10.5 62.5t28 48.5t39 35.5t42.5 22.5q-44 21 -68 55.5t-24 83.5q0 38 13.5 70.5t39.5 56t65 36.5t90 13q46 0 83 -13t62.5 -36t39.5 -55t14 -70q0 -54 -25.5 -88t-65.5 -49q23 -8 44.5 -23t37.5 -36.5
t25.5 -49.5t9.5 -61q0 -47 -17.5 -84.5t-48.5 -63.5t-74 -39.5t-94 -13.5zM276 61q63 0 101.5 32.5t38.5 96.5q0 63 -37 95t-103 32q-72 0 -106 -36.5t-34 -90.5q0 -55 36.5 -92t103.5 -37zM278 597q-63 0 -90.5 -28.5t-27.5 -74.5q0 -21 7 -39.5t21.5 -32.5t37 -22t53.5 -8
q60 0 87 26.5t27 72.5q0 22 -7 41t-21 33.5t-35.5 23t-51.5 8.5z" />
    <glyph glyph-name="nine" unicode="9" horiz-adv-x="541" 
d="M143 144q14 -40 41.5 -61t75.5 -21t76 28.5t42 68.5t18.5 84t5.5 75q-23 -42 -64 -60t-93 -18q-47 0 -84 15.5t-63.5 43.5t-40.5 66.5t-14 83.5t15 85.5t43.5 70.5t69.5 47.5t94 17.5q61 0 104 -23t70 -63.5t39 -96t12 -120.5t-9 -132t-34 -122t-71 -89.5t-119 -34.5
q-50 0 -85.5 13.5t-60 35t-38.5 49.5t-20 57h90zM263 596q-34 0 -58.5 -11t-40 -30.5t-23 -45.5t-7.5 -56q0 -64 33.5 -102t92.5 -38q69 0 100.5 35t31.5 101q0 15 -4 40t-17.5 48.5t-39 41t-68.5 17.5z" />
    <glyph glyph-name="colon" unicode=":" horiz-adv-x="250" 
d="M81 0v145h89v-145h-89zM81 361v144h89v-144h-89z" />
    <glyph glyph-name="semicolon" unicode=";" horiz-adv-x="252" 
d="M14 -115q34 72 51 138.5t20 123.5h89q-3 -37 -11.5 -75t-20.5 -72.5t-27 -64t-30 -50.5h-71zM83 358v147h90v-147h-90z" />
    <glyph glyph-name="less" unicode="&#x3c;" horiz-adv-x="615" 
d="M83 317l449 243v-87l-363 -192l363 -198v-87l-449 248v73z" />
    <glyph glyph-name="equal" unicode="=" horiz-adv-x="713" 
d="M630 197v-78h-547v78h547zM630 446v-78h-547v78h547z" />
    <glyph glyph-name="greater" unicode="&#x3e;" horiz-adv-x="615" 
d="M532 239l-449 -243v87l362 192l-362 199v86l449 -248v-73z" />
    <glyph glyph-name="question" unicode="?" horiz-adv-x="497" 
d="M204 210v15q0 20 3.5 39.5t14 40.5t29 44t48.5 49q43 39 55 70t12 62q0 18 -6 36.5t-19 33t-33.5 24t-48.5 9.5q-56 0 -83.5 -31.5t-35.5 -82.5h-86q1 23 11 55t33 61.5t62.5 50t100.5 20.5q55 0 92 -17.5t60 -43.5t33 -57.5t10 -59.5q0 -26 -4.5 -48.5t-16 -43.5
t-30 -43t-45.5 -47q-38 -34 -52 -63t-14 -65v-8h-90zM204 0v138h90v-138h-90z" />
    <glyph glyph-name="at" unicode="@" horiz-adv-x="935" 
d="M698 -113q-37 -26 -96 -44t-149 -18q-85 0 -156.5 28t-123 80t-80.5 126.5t-29 166.5q0 94 30.5 175t87 140.5t137 93t179.5 33.5q76 0 144.5 -23t119.5 -67t81 -109t30 -150q0 -67 -16.5 -121t-46.5 -91.5t-71 -57.5t-89 -20q-43 0 -70.5 18t-29.5 60q-26 -37 -58.5 -57
t-83.5 -20q-61 0 -101.5 43.5t-40.5 130.5q0 57 16 106.5t44 85.5t65.5 57t80.5 21q30 0 51 -7.5t35 -18.5t22 -24.5t11 -26.5l17 67h79l-60 -281q-11 -49 0.5 -67t38.5 -18q28 0 52.5 15.5t41.5 44t27 68.5t10 89q0 66 -21.5 118.5t-61.5 90t-95.5 57.5t-123.5 20
q-80 0 -145 -27.5t-111 -77t-71 -118.5t-25 -153q0 -70 22 -130.5t63 -104.5t99 -69.5t130 -25.5q63 0 118 12.5t104 41.5zM481 407q-30 0 -54.5 -16.5t-41 -44.5t-25.5 -63.5t-9 -73.5q0 -54 20.5 -82t57.5 -28q45 0 78 33.5t52 116.5q35 158 -78 158z" />
    <glyph glyph-name="A" unicode="A" horiz-adv-x="660" 
d="M187 209l-75 -209h-92l248 696h113l259 -696h-99l-77 209h-277zM441 288q-25 69 -44.5 122t-34 93.5t-24 69t-15.5 48.5h-1q-13 -45 -42 -130t-69 -203h230z" />
    <glyph glyph-name="B" unicode="B" horiz-adv-x="646" 
d="M92 696h267q55 0 95.5 -13.5t67 -37.5t39.5 -55.5t13 -67.5q0 -61 -29.5 -99.5t-70.5 -52.5q18 -6 39.5 -18t40 -32.5t31 -49t12.5 -66.5q0 -49 -17.5 -87t-49 -64t-74 -39.5t-91.5 -13.5h-273v696zM341 406q76 0 108 28.5t32 79.5q0 47 -32 76t-94 29h-173v-213h159z
M182 76h172q65 0 106.5 31.5t41.5 96.5q0 56 -39 91t-127 35h-154v-254z" />
    <glyph glyph-name="B" unicode="&#xe000;" horiz-adv-x="646" 
d="M92 696h267q55 0 95.5 -13.5t67 -37.5t39.5 -55.5t13 -67.5q0 -61 -29.5 -99.5t-70.5 -52.5q18 -6 39.5 -18t40 -32.5t31 -49t12.5 -66.5q0 -49 -17.5 -87t-49 -64t-74 -39.5t-91.5 -13.5h-273v696zM341 406q76 0 108 28.5t32 79.5q0 47 -32 76t-94 29h-173v-213h159z
M182 76h172q65 0 106.5 31.5t41.5 96.5q0 56 -39 91t-127 35h-154v-254z" />
    <glyph glyph-name="C" unicode="C" horiz-adv-x="686" 
d="M643 197q-12 -44 -34.5 -82t-56.5 -65.5t-80.5 -43t-105.5 -15.5q-78 0 -136.5 28t-98 76t-59 112.5t-19.5 138.5q0 71 19.5 136t59 115t99 79.5t138.5 29.5q61 0 109 -16.5t82 -45t54.5 -67t28.5 -81.5h-92q-9 28 -24 52.5t-37 42.5t-52.5 28t-71.5 10q-58 0 -99 -24
t-67 -63.5t-38 -90t-12 -102.5q0 -51 11.5 -101.5t38 -90.5t68.5 -64.5t102 -24.5q40 0 69.5 10.5t51 28.5t35.5 41.5t24 48.5h93z" />
    <glyph glyph-name="D" unicode="D" horiz-adv-x="721" 
d="M92 696h248q73 0 133.5 -24t104 -68.5t67 -107.5t23.5 -141q0 -77 -23.5 -142.5t-66.5 -112.5t-104 -73.5t-137 -26.5h-245v696zM184 78h146q61 0 106.5 21t75.5 57.5t44.5 87t14.5 109.5q0 51 -14 99t-43 84.5t-74.5 58.5t-109.5 22h-146v-539z" />
    <glyph glyph-name="E" unicode="E" horiz-adv-x="597" 
d="M528 325h-346v-246h380l-12 -79h-458v696h453v-79h-363v-213h346v-79z" />
    <glyph glyph-name="E" unicode="&#xe001;" horiz-adv-x="597" 
d="M528 325h-346v-246h380l-12 -79h-458v696h453v-79h-363v-213h346v-79z" />
    <glyph glyph-name="F" unicode="F" horiz-adv-x="564" 
d="M92 696h447v-79h-356v-226h333v-79h-333v-312h-91v696z" />
    <glyph glyph-name="G" unicode="G" horiz-adv-x="728" 
d="M656 0h-71q-8 20 -9 94q-11 -18 -28.5 -36.5t-43.5 -33.5t-61.5 -24t-82.5 -9q-75 0 -132.5 27t-96.5 74t-58.5 111t-19.5 138q0 78 21 145t62 115.5t101.5 76.5t139.5 28q61 0 110 -15.5t85 -44t58 -67.5t30 -85h-92q-9 29 -24.5 54t-38.5 43t-55 28t-75 10
q-60 0 -103 -22.5t-70 -61.5t-39.5 -90.5t-12.5 -109.5q0 -54 12.5 -104t39 -88.5t68.5 -61.5t101 -23q58 0 96 18t60 48.5t30.5 70.5t8.5 84v8h-196v79h286v-376z" />
    <glyph glyph-name="H" unicode="H" horiz-adv-x="730" 
d="M92 696h92v-291h362v291h93v-696h-93v326h-362v-326h-92v696z" />
    <glyph glyph-name="I" unicode="I" horiz-adv-x="276" 
d="M184 696v-696h-92v696h92z" />
    <glyph glyph-name="J" unicode="J" horiz-adv-x="368" 
d="M281 203q0 -59 -11.5 -99.5t-34 -66t-56 -36.5t-77.5 -11q-21 0 -39.5 2t-33.5 5v77q10 -2 28.5 -3.5t35.5 -1.5q31 0 50 11t29 29t13 41.5t3 49.5v496h93v-493z" />
    <glyph glyph-name="K" unicode="K" horiz-adv-x="639" 
d="M92 696h91v-342q13 13 35.5 36t51 51.5t61 61.5t66 66.5t65.5 66t59 60.5h115l-299 -294l314 -402h-112l-267 343l-89 -81v-262h-91v696z" />
    <glyph glyph-name="L" unicode="L" horiz-adv-x="561" 
d="M92 696h92v-617h363l-13 -79h-442v696z" />
    <glyph glyph-name="M" unicode="M" horiz-adv-x="868" 
d="M686 296q0 49 0.5 97t1 91.5t1.5 81t2 64.5h-4q-8 -28 -21.5 -70.5t-31.5 -94.5t-39 -110.5t-43.5 -119t-44.5 -120.5t-42 -115h-83q-15 44 -34 100t-39.5 116.5t-41.5 121.5t-39 116.5t-32 101.5t-22 76h-3q2 -30 3.5 -72.5t2.5 -90.5t1.5 -97.5t0.5 -94.5v-277h-87v696
h137q20 -54 40.5 -112t41 -115.5t39 -112t34.5 -101.5t27.5 -83.5t17.5 -58.5h1q4 17 16 52t28.5 82t37.5 103.5t43 115.5t44.5 118t43.5 112h133v-696h-90v296z" />
    <glyph glyph-name="N" unicode="N" horiz-adv-x="744" 
d="M92 0v696h122q25 -41 58.5 -95t69.5 -112.5t72.5 -117.5t68 -110.5t54.5 -90.5t33 -58h1q-5 67 -5.5 147t-0.5 165v272h87v-696h-115q-23 38 -55.5 91.5t-69 114t-74 122.5t-70 116t-57 95.5t-35.5 61.5h-2q4 -60 4.5 -144t0.5 -179v-278h-87z" />
    <glyph glyph-name="O" unicode="O" horiz-adv-x="751" 
d="M380 706q73 0 132 -26t100.5 -73t63.5 -112t22 -143q0 -72 -20 -137.5t-60.5 -115.5t-102 -79.5t-143.5 -29.5q-77 0 -136.5 28t-100 76t-61.5 113.5t-21 140.5t21.5 140t63 113.5t102.5 76.5t140 28zM376 627q-59 0 -101.5 -22.5t-70.5 -60t-41 -88t-13 -105.5
q0 -56 14 -107t42.5 -90t71 -62t98.5 -23q60 0 103 23t70.5 62t40 89.5t12.5 106.5t-14 106.5t-42 88.5t-70.5 60t-99.5 22z" />
    <glyph glyph-name="P" unicode="P" horiz-adv-x="629" 
d="M92 696h264q51 0 93 -14t72 -40t46.5 -63.5t16.5 -85.5q0 -51 -17.5 -89.5t-48.5 -64.5t-74 -39.5t-94 -13.5h-165v-286h-93v696zM185 364h161q72 0 107.5 33t35.5 94q0 64 -39 95.5t-101 31.5h-164v-254z" />
    <glyph glyph-name="Q" unicode="Q" horiz-adv-x="758" 
d="M380 706q73 0 132 -26t100.5 -73t63.5 -112t22 -143q0 -89 -30.5 -166.5t-92.5 -128.5l169 -120l-56 -64l-195 137q-55 -20 -121 -20q-77 0 -136.5 28t-100 76t-61.5 113.5t-21 140.5t21.5 140t63 113.5t102.5 76.5t140 28zM376 627q-59 0 -101.5 -22.5t-70.5 -60
t-41 -88t-13 -105.5q0 -56 14 -107t42.5 -90t71 -62t98.5 -23q60 0 103 23t70.5 62t40 89.5t12.5 106.5t-14 106.5t-42 88.5t-70.5 60t-99.5 22z" />
    <glyph glyph-name="R" unicode="R" horiz-adv-x="642" 
d="M183 306v-306h-91v696h272q54 0 94.5 -14t68.5 -38.5t42 -59t14 -74.5q0 -69 -34 -109.5t-85 -54.5q21 -6 40.5 -17.5t34 -32t23 -52t8.5 -76.5v-30v-37.5t0.5 -38.5t2.5 -35t7 -27h-90q-10 23 -11 61.5t-1 88.5v14q0 37 -6.5 64t-23.5 44t-46.5 25.5t-76.5 8.5h-142z
M183 384h151q81 0 117 29.5t36 88.5q0 56 -35.5 86t-106.5 30h-162v-234z" />
    <glyph glyph-name="S" unicode="S" horiz-adv-x="606" 
d="M135 194q14 -63 57.5 -96t119.5 -33q40 0 69 9t47 24.5t26.5 37t8.5 46.5q0 26 -7.5 47t-27 38t-53 31t-85.5 26q-62 15 -104 33.5t-68 42t-37.5 52.5t-11.5 66q0 39 14.5 73t43 59.5t72 40.5t101.5 15q62 0 106.5 -16.5t74 -43t44.5 -60t19 -67.5h-94q-5 23 -15 43.5
t-28 35.5t-45 24t-65 9q-64 0 -98 -27t-34 -77q0 -24 8 -42t26.5 -31.5t49.5 -25t77 -22.5q74 -18 120 -41t71 -50.5t33.5 -58.5t8.5 -65q0 -42 -15.5 -78.5t-47 -63.5t-79 -42.5t-111.5 -15.5q-66 0 -113.5 16.5t-79 44.5t-49 65t-23.5 77h94z" />
    <glyph glyph-name="S" unicode="&#xe002;" horiz-adv-x="606" 
d="M135 194q14 -63 57.5 -96t119.5 -33q40 0 69 9t47 24.5t26.5 37t8.5 46.5q0 26 -7.5 47t-27 38t-53 31t-85.5 26q-62 15 -104 33.5t-68 42t-37.5 52.5t-11.5 66q0 39 14.5 73t43 59.5t72 40.5t101.5 15q62 0 106.5 -16.5t74 -43t44.5 -60t19 -67.5h-94q-5 23 -15 43.5
t-28 35.5t-45 24t-65 9q-64 0 -98 -27t-34 -77q0 -24 8 -42t26.5 -31.5t49.5 -25t77 -22.5q74 -18 120 -41t71 -50.5t33.5 -58.5t8.5 -65q0 -42 -15.5 -78.5t-47 -63.5t-79 -42.5t-111.5 -15.5q-66 0 -113.5 16.5t-79 44.5t-49 65t-23.5 77h94z" />
    <glyph glyph-name="T" unicode="T" horiz-adv-x="558" 
d="M232 617h-224v79h542v-79h-225v-617h-93v617z" />
    <glyph glyph-name="U" unicode="U" horiz-adv-x="714" 
d="M179 696v-419q0 -62 15.5 -102t40.5 -64t57.5 -33.5t65.5 -9.5q39 0 71.5 10t56.5 34t37 64.5t13 100.5v419h93v-414q0 -85 -22 -141t-59 -89.5t-87 -47t-105 -13.5q-54 0 -103.5 14.5t-86.5 47.5t-59 87.5t-22 134.5v421h94z" />
    <glyph glyph-name="V" unicode="V" horiz-adv-x="642" 
d="M262 0l-253 696h99l122 -347q13 -38 26.5 -76t25 -73t20.5 -65.5t15 -54.5h2q6 21 15.5 51t21.5 65.5t26 73.5l28 76l128 350h95l-262 -696h-109z" />
    <glyph glyph-name="W" unicode="W" horiz-adv-x="936" 
d="M209 0l-187 696h98q13 -57 28 -118t30 -120.5t28.5 -115t25 -102.5t19.5 -83t11 -56h1q4 22 14.5 62.5t24.5 92t30.5 110t32.5 117t31 113.5t26 100h90q10 -39 24.5 -92.5t30 -112t31.5 -119t29.5 -113t23 -93.5t13.5 -62h1q6 30 17 75.5t25.5 99.5t31 112.5t32 114
t29 105t23.5 85.5h91l-203 -696h-99q-11 40 -24.5 92.5t-28.5 109.5t-30 114.5t-28 108t-23 90t-14 60.5h-1q-5 -26 -15.5 -67.5t-24 -92t-29 -107t-31 -111.5t-30 -106t-25.5 -91h-99z" />
    <glyph glyph-name="X" unicode="X" horiz-adv-x="578" 
d="M472 0l-185 286h-1l-186 -286h-102l235 352l-226 344h107l175 -271h1l180 271h102l-231 -336l239 -360h-108z" />
    <glyph glyph-name="Y" unicode="Y" horiz-adv-x="591" 
d="M245 0v255q0 13 -5 19l-245 422h106q24 -42 53 -94t56.5 -102.5t51 -92.5t35.5 -65q11 22 34.5 64.5t52 92.5t58.5 102.5l54 94.5h99l-253 -424q-2 -3 -3 -6.5t-1 -11.5v-254h-93z" />
    <glyph glyph-name="Z" unicode="Z" horiz-adv-x="597" 
d="M30 71l424 546h-403v79h509v-77l-416 -540h430l-13 -79h-531v71z" />
    <glyph glyph-name="bracketleft" unicode="[" horiz-adv-x="342" 
d="M86 -172v906h217v-70h-139v-765h139v-71h-217z" />
    <glyph glyph-name="backslash" unicode="\" horiz-adv-x="447" 
d="M45 706h78l280 -757h-79z" />
    <glyph glyph-name="bracketright" unicode="]" horiz-adv-x="342" 
d="M256 734v-906h-217v70h139v765h-139v71h217z" />
    <glyph glyph-name="asciicircum" unicode="^" horiz-adv-x="480" 
d="M370 313l-132 287l-127 -287h-75l169 356h72l167 -356h-74z" />
    <glyph glyph-name="underscore" unicode="_" horiz-adv-x="531" 
d="M531 -78v-51h-530v51h530z" />
    <glyph glyph-name="grave" unicode="`" 
d="M135 744l128 -153h-83l-154 153h109z" />
    <glyph glyph-name="a" unicode="a" horiz-adv-x="529" 
d="M453 111q0 -35 2.5 -67.5t4.5 -43.5h-84q-6 18 -8 66q-7 -12 -18.5 -26t-30 -25.5t-45 -19t-63.5 -7.5q-45 0 -77.5 13.5t-53 35t-30.5 49.5t-10 57q0 85 63 125t177 40h86v43q0 17 -3.5 34.5t-15 32t-33 23.5t-57.5 9q-32 0 -51.5 -7t-31 -18.5t-17 -26t-8.5 -29.5h-85
q3 26 13 53t32.5 48.5t59 35t91.5 13.5q94 0 143.5 -39.5t49.5 -126.5v-242zM367 247h-82q-76 0 -115.5 -22.5t-39.5 -76.5q0 -40 25.5 -65.5t73.5 -25.5q46 0 73 14t41.5 38t19 55.5t4.5 66.5v16z" />
    <glyph glyph-name="b" unicode="b" horiz-adv-x="571" 
d="M75 734h88v-299q8 16 21.5 31t33 27t45.5 19t61 7q48 0 86.5 -19t65.5 -52.5t41.5 -80.5t14.5 -103q0 -58 -14.5 -108t-42.5 -87.5t-69 -59t-95 -21.5q-61 0 -95.5 21t-53.5 58q0 -20 -1 -38t-3 -29h-84q1 43 1 85.5v84.5v564zM442 262q0 83 -36 133t-102 50
q-81 0 -113.5 -51t-32.5 -142q0 -40 7 -74.5t23.5 -60t43.5 -40.5t67 -15q68 0 105.5 53.5t37.5 146.5z" />
    <glyph glyph-name="b" unicode="&#xe003;" horiz-adv-x="571" 
d="M75 734h88v-299q8 16 21.5 31t33 27t45.5 19t61 7q48 0 86.5 -19t65.5 -52.5t41.5 -80.5t14.5 -103q0 -58 -14.5 -108t-42.5 -87.5t-69 -59t-95 -21.5q-61 0 -95.5 21t-53.5 58q0 -20 -1 -38t-3 -29h-84q1 43 1 85.5v84.5v564zM442 262q0 83 -36 133t-102 50
q-81 0 -113.5 -51t-32.5 -142q0 -40 7 -74.5t23.5 -60t43.5 -40.5t67 -15q68 0 105.5 53.5t37.5 146.5z" />
    <glyph glyph-name="c" unicode="c" horiz-adv-x="506" 
d="M475 155q-8 -33 -23.5 -63t-40.5 -53t-61 -37t-84 -14q-106 0 -166 70t-60 193q0 54 15 102.5t44.5 85t72.5 58.5t100 22q55 0 92.5 -17.5t61.5 -43t35.5 -55t13.5 -53.5h-87q-5 19 -13.5 36.5t-22.5 30.5t-34 21t-48 8q-33 0 -59 -14t-44 -39t-27.5 -60.5t-9.5 -78.5
q0 -87 35.5 -140t101.5 -53q48 0 76.5 24.5t44.5 69.5h87z" />
    <glyph glyph-name="d" unicode="d" horiz-adv-x="571" 
d="M497 734v-591v-70.5t1 -72.5h-84q-1 5 -2 14t-1.5 19.5t-1 20.5t-0.5 18q-19 -40 -57.5 -62t-101.5 -22q-49 0 -88 19t-66.5 53.5t-42 82t-14.5 105.5t16 108t45 86t71 56.5t95 20.5q34 0 58.5 -6t42 -15.5t27.5 -21t15 -22.5v280h88zM130 251q0 -92 39 -140.5t99 -48.5
q44 0 72.5 15.5t44.5 42.5t22 63t6 78t-5.5 76t-20.5 58t-42 37t-70 13q-68 0 -106.5 -50.5t-38.5 -143.5z" />
    <glyph glyph-name="e" unicode="e" horiz-adv-x="523" 
d="M127 238q0 -39 10 -71.5t28 -56t43.5 -36.5t57.5 -13q30 0 50.5 7t34.5 18.5t22.5 25.5t14.5 28h89q-8 -24 -22.5 -51t-40 -49.5t-62.5 -37t-89 -14.5q-60 0 -102.5 22.5t-69.5 59t-39.5 83t-12.5 95.5q0 57 14.5 106t43 86t71.5 58t101 21q61 0 103 -22t67 -57t36 -77.5
t11 -82.5v-22t-1 -20h-358zM397 299q0 31 -8.5 59t-24.5 48t-40 32t-56 12q-34 0 -58.5 -11t-41 -31t-26 -48t-12.5 -61h267z" />
    <glyph glyph-name="f" unicode="f" horiz-adv-x="283" 
d="M90 0v436h-81v71h81v61q0 35 7.5 67t24.5 56t45.5 38.5t70.5 14.5q14 0 30.5 -1.5t25.5 -4.5v-75q-9 2 -21.5 3.5t-22.5 1.5q-39 0 -55.5 -25t-16.5 -81v-55h102v-71h-102v-436h-88z" />
    <glyph glyph-name="g" unicode="g" horiz-adv-x="567" 
d="M493 46q0 -122 -54.5 -188.5t-178.5 -66.5q-58 0 -96.5 14.5t-62.5 37t-36 50t-15 53.5h89q11 -42 43.5 -63.5t81.5 -21.5q43 0 71 13t44 38t22 59.5t6 78.5v41q-20 -42 -57 -65.5t-101 -23.5q-47 0 -85.5 18.5t-66.5 51.5t-43 79t-15 102q0 62 17 111t46.5 83.5t69.5 53
t86 18.5q36 0 62.5 -7.5t44.5 -19t28 -25.5t14 -27q1 17 2.5 38t2.5 29h82v-28.5t-0.5 -37.5t-0.5 -41v-39v-315zM130 257q0 -40 10 -73t28.5 -57t44 -37t56.5 -13q41 0 68 13.5t43.5 37.5t23 58.5t6.5 76.5q0 43 -6.5 76.5t-22 57t-42.5 36t-67 12.5q-35 0 -61.5 -14
t-44.5 -39t-27 -59.5t-9 -75.5z" />
    <glyph glyph-name="h" unicode="h" horiz-adv-x="566" 
d="M163 734v-302q9 17 23 32.5t33 27.5t44.5 19.5t57.5 7.5q30 0 60.5 -9t55 -31.5t40 -60t15.5 -94.5v-324h-88v309q0 65 -27 99.5t-83 34.5q-69 0 -100 -43t-31 -123v-277h-88v734h88z" />
    <glyph glyph-name="i" unicode="i" horiz-adv-x="237" 
d="M75 507h88v-507h-88v507zM75 625v109h88v-109h-88z" />
    <glyph glyph-name="j" unicode="j" horiz-adv-x="237" 
d="M163 507v-524q0 -53 -7 -89.5t-23.5 -59t-44 -33t-68.5 -10.5q-5 0 -16.5 0.5t-17.5 1.5v74q5 -1 10 -1h9q23 0 36.5 6t21 18.5t10 31.5t2.5 46v539h88zM75 625v109h88v-109h-88z" />
    <glyph glyph-name="k" unicode="k" horiz-adv-x="505" 
d="M163 265q16 19 43 48.5t58.5 63t63 68t57.5 62.5h105l-191 -197l213 -310h-103l-170 253l-76 -73v-180h-88v734h88v-469z" />
    <glyph glyph-name="l" unicode="l" horiz-adv-x="237" 
d="M75 0v734h88v-734h-88z" />
    <glyph glyph-name="m" unicode="m" horiz-adv-x="846" 
d="M75 376v66.5t-1 64.5h84q2 -11 3 -34.5t1 -43.5q9 17 21.5 33t30.5 29t41.5 20.5t53.5 7.5q54 0 90 -24.5t51 -66.5q10 18 24.5 34.5t34 29t45 20t57.5 7.5q31 0 60 -10t51 -32t35.5 -57.5t13.5 -86.5v-333h-86v323q0 22 -4.5 43.5t-16 38.5t-30.5 27.5t-49 10.5
q-31 0 -53.5 -11t-37 -31t-21.5 -48t-7 -62v-291h-86v320q0 24 -4 46.5t-15 39.5t-30 27t-49 10q-61 0 -90.5 -45t-29.5 -117v-281h-87v376z" />
    <glyph glyph-name="n" unicode="n" horiz-adv-x="566" 
d="M75 379v66t-1 62h85q1 -6 2 -17.5t1.5 -24t0.5 -24v-17.5q7 16 19 33t31 30.5t45.5 22.5t63.5 9q36 0 67 -11t54 -34.5t36 -60t13 -87.5v-326h-88v315q0 58 -24.5 93t-82.5 35q-36 0 -61.5 -13t-41.5 -36.5t-23.5 -55.5t-7.5 -70v-268h-88v379z" />
    <glyph glyph-name="o" unicode="o" horiz-adv-x="550" 
d="M278 519q53 0 96 -19t73.5 -53.5t47 -83t16.5 -108.5q0 -55 -15.5 -103.5t-46 -85t-75 -57.5t-102.5 -21q-54 0 -97.5 20t-73.5 55t-46 84t-16 106q0 56 16 104.5t46.5 84.5t75 56.5t101.5 20.5zM274 446q-71 0 -108 -53t-37 -139q0 -42 10 -77.5t29 -61t46.5 -40
t61.5 -14.5t61 14t46 39t28.5 60.5t9.5 78.5t-9.5 78.5t-28.5 61t-46 39.5t-63 14z" />
    <glyph glyph-name="p" unicode="p" horiz-adv-x="570" 
d="M75 -199v582v63.5t-1 60.5h85q2 -13 2.5 -34t0.5 -46q21 39 60.5 65.5t105.5 26.5q44 0 81 -17.5t64 -50.5t42 -79.5t15 -104.5q0 -68 -17 -120.5t-47 -87.5t-70 -53t-86 -18q-62 0 -96.5 22t-51.5 53v-262h-87zM440 263q0 81 -35 131t-100 50q-79 0 -113 -48t-34 -142
q0 -45 7 -80.5t23.5 -60t43 -38t66.5 -13.5q70 0 106 53.5t36 147.5z" />
    <glyph glyph-name="q" unicode="q" horiz-adv-x="570" 
d="M410 73q-20 -40 -57.5 -62.5t-103.5 -22.5q-43 0 -81.5 17t-67 50t-45 81.5t-16.5 111.5q0 64 17.5 114t48 85t71 53.5t86.5 18.5q35 0 61 -7t44 -18.5t28 -25t15 -25.5q-1 14 0 31t3 33h83q-1 -40 -1 -72.5v-67.5v-566h-85v272zM130 252q0 -39 8.5 -73.5t25.5 -60.5
t43.5 -41t62.5 -15q41 0 68.5 13.5t44 39t23 61.5t6.5 80q0 45 -6 80t-22 59t-42.5 36.5t-67.5 12.5q-36 0 -63 -14.5t-45 -40t-27 -60.5t-9 -77z" />
    <glyph glyph-name="r" unicode="r" horiz-adv-x="352" 
d="M75 369q0 54 -0.5 86t-0.5 52h86q1 -11 2 -38.5t1 -64.5q20 51 63.5 82t106.5 33v-87q-78 -2 -124 -46t-46 -140v-246h-88v369z" />
    <glyph glyph-name="s" unicode="s" horiz-adv-x="473" 
d="M118 145q11 -42 41.5 -65t82.5 -23q56 0 79.5 21.5t23.5 56.5q0 18 -5 31.5t-18.5 24.5t-37 19.5t-59.5 17.5q-54 13 -88.5 28.5t-53.5 33.5t-26 39.5t-7 47.5q0 27 10.5 52.5t32.5 45.5t56.5 32t83.5 12t84 -13t58 -34t35 -47t14 -52h-84q-3 12 -9.5 25.5t-19.5 25.5
t-32.5 19.5t-48.5 7.5q-53 0 -73 -21t-20 -46q0 -14 4.5 -25t17.5 -20.5t35 -17.5t57 -16q58 -14 94 -30.5t56 -36.5t27.5 -44t7.5 -52q0 -67 -51 -110.5t-146 -43.5q-49 0 -86 11.5t-62.5 32.5t-40.5 50t-20 63h88z" />
    <glyph glyph-name="s" unicode="&#xe004;" horiz-adv-x="473" 
d="M118 145q11 -42 41.5 -65t82.5 -23q56 0 79.5 21.5t23.5 56.5q0 18 -5 31.5t-18.5 24.5t-37 19.5t-59.5 17.5q-54 13 -88.5 28.5t-53.5 33.5t-26 39.5t-7 47.5q0 27 10.5 52.5t32.5 45.5t56.5 32t83.5 12t84 -13t58 -34t35 -47t14 -52h-84q-3 12 -9.5 25.5t-19.5 25.5
t-32.5 19.5t-48.5 7.5q-53 0 -73 -21t-20 -46q0 -14 4.5 -25t17.5 -20.5t35 -17.5t57 -16q58 -14 94 -30.5t56 -36.5t27.5 -44t7.5 -52q0 -67 -51 -110.5t-146 -43.5q-49 0 -86 11.5t-62.5 32.5t-40.5 50t-20 63h88z" />
    <glyph glyph-name="t" unicode="t" horiz-adv-x="319" 
d="M10 507h88v150h87v-150h112v-71h-112v-297q0 -38 11.5 -56.5t46.5 -18.5q9 0 21 1t23 3v-66q-16 -6 -36.5 -7.5t-39.5 -1.5q-60 0 -86.5 31t-26.5 94v318h-88v71z" />
    <glyph glyph-name="u" unicode="u" horiz-adv-x="557" 
d="M482 148v-40t0.5 -41.5t0.5 -38v-28.5h-85q-2 10 -2.5 31t-1.5 45q-19 -42 -56 -65t-97 -23q-32 0 -62.5 9t-54 30.5t-37.5 57t-14 89.5v333h87v-315q0 -25 4.5 -48t16.5 -41t32 -28.5t52 -10.5q70 0 99.5 41.5t29.5 137.5v264h88v-359z" />
    <glyph glyph-name="v" unicode="v" horiz-adv-x="484" 
d="M106 507q51 -156 86.5 -266.5t47.5 -158.5h1q9 42 47 152t95 273h89l-186 -507h-97l-177 507h94z" />
    <glyph glyph-name="w" unicode="w" horiz-adv-x="767" 
d="M117 507q47 -179 74 -283t34 -143h1q3 18 12 51t23 85t34.5 123.5t47.5 166.5h86q30 -108 49.5 -180t32.5 -118.5t19.5 -73.5t9.5 -44h1q5 20 12 47.5t19.5 73.5t31.5 117t49 178h89l-156 -507h-95q-18 69 -36 134.5t-33 120t-25.5 95t-14.5 61.5h-1q-3 -21 -13 -59.5
t-24.5 -91.5t-33.5 -119t-40 -141h-98l-147 507h92z" />
    <glyph glyph-name="x" unicode="x" horiz-adv-x="453" 
d="M106 507q27 -42 46.5 -73t33.5 -53.5t23.5 -37.5t16.5 -25h1q17 24 48 72t76 117h98l-171 -244l173 -263h-101q-47 75 -78.5 125t-46.5 75h-1q-13 -21 -43.5 -71.5t-80.5 -128.5h-98l170 253l-165 254h99z" />
    <glyph glyph-name="y" unicode="y" horiz-adv-x="481" 
d="M105 507q61 -182 95.5 -286t45.5 -143h1q6 22 16 56t26 85t39 121.5t54 166.5h88l-182 -530q-19 -56 -37 -92t-40 -57t-49.5 -29t-66.5 -8q-25 0 -55 3v76q10 -1 20.5 -1.5t21.5 -0.5q24 0 41 5.5t30.5 19t24.5 34.5t22 53l-190 527h95z" />
    <glyph glyph-name="y" unicode="&#xe006;" horiz-adv-x="481" 
d="M105 507q61 -182 95.5 -286t45.5 -143h1q6 22 16 56t26 85t39 121.5t54 166.5h88l-182 -530q-19 -56 -37 -92t-40 -57t-49.5 -29t-66.5 -8q-25 0 -55 3v76q10 -1 20.5 -1.5t21.5 -0.5q24 0 41 5.5t30.5 19t24.5 34.5t22 53l-190 527h95z" />
    <glyph glyph-name="z" unicode="z" horiz-adv-x="451" 
d="M25 71l292 362h-277v74h377v-73l-288 -360h302l-14 -74h-392v71z" />
    <glyph glyph-name="braceleft" unicode="{" horiz-adv-x="370" 
d="M27 318q36 0 57.5 8t33.5 23t15.5 35.5t3.5 45.5v130q0 44 13 76.5t36 54.5t54.5 32.5t69.5 10.5h21v-67h-16q-51 0 -73.5 -28.5t-22.5 -82.5v-124q0 -62 -23 -100.5t-74 -48.5q52 -12 74.5 -48.5t22.5 -102.5v-124q0 -57 26.5 -85.5t71.5 -28.5h14v-67h-21
q-33 0 -64 9.5t-55.5 30t-39 53.5t-14.5 81v132q0 24 -3.5 44.5t-14.5 35.5t-33 23.5t-59 8.5v73z" />
    <glyph glyph-name="bar" unicode="|" horiz-adv-x="284" 
d="M182 781v-1043h-80v1043h80z" />
    <glyph glyph-name="braceright" unicode="}" horiz-adv-x="370" 
d="M331 243q-36 0 -57.5 -8t-33.5 -23t-15.5 -35.5t-3.5 -45.5v-130q0 -44 -13 -76.5t-36 -54.5t-54.5 -32.5t-69.5 -10.5h-21v67h16q51 0 73.5 28.5t22.5 82.5v124q0 62 23 100.5t74 48.5q-52 12 -74.5 48.5t-22.5 102.5v124q0 57 -26.5 85.5t-71.5 28.5h-14v67h21
q33 0 64 -9.5t55.5 -30t39 -53.5t14.5 -81v-132q0 -24 3.5 -44.5t14.5 -35.5t33 -23.5t59 -8.5v-73z" />
    <glyph glyph-name="asciitilde" unicode="~" horiz-adv-x="670" 
d="M87 203v30q0 36 9 61t24.5 40.5t36.5 22.5t44 7q38 0 74.5 -14t70.5 -31.5t64 -31.5t55 -14q27 0 38.5 17t11.5 53v17h68v-21q0 -42 -9.5 -69t-25.5 -42.5t-36.5 -22t-42.5 -6.5q-36 0 -72 14t-70 31.5t-65 31.5t-56 14q-23 0 -37 -16t-14 -52v-19h-68z" />
    <glyph glyph-name="exclamdown" unicode="&#xa1;" horiz-adv-x="247" 
d="M143 272l12 -339v-122h-95v122l11 339h72zM152 507v-138h-87v138h87z" />
    <glyph glyph-name="cent" unicode="&#xa2;" horiz-adv-x="532" 
d="M494 232q-14 -62 -61 -103.5t-125 -48.5v-91h-58v92q-46 5 -83 25t-63 52t-40 74.5t-14 93.5q0 47 13 89.5t38.5 75.5t63 54.5t85.5 27.5v70h58v-69q49 -3 83.5 -20t56.5 -39.5t33 -47.5t13 -45h-87q-9 28 -30.5 51t-68.5 29v-350q41 5 63.5 25t35.5 55h87zM140 329
q0 -32 7 -61.5t20.5 -52.5t34 -39t48.5 -22v346q-57 -11 -83.5 -56t-26.5 -115z" />
    <glyph glyph-name="sterling" unicode="&#xa3;" horiz-adv-x="514" 
d="M35 0v71q44 23 61 75t17 126v30h-91v69h88q-1 17 -1.5 36.5t-0.5 43.5q0 48 11 88t33.5 69t58 45t83.5 16q49 0 82 -15.5t54 -39.5t31.5 -53t12.5 -56h-85q-7 39 -29.5 64t-67.5 25q-56 0 -76 -36t-20 -100q0 -26 0.5 -46.5t1.5 -40.5h151v-69h-149v-25q0 -68 -12 -116.5
t-41 -82.5h350l-12 -78h-450z" />
    <glyph glyph-name="currency" unicode="&#xa4;" horiz-adv-x="538" 
d="M271 556q69 0 120 -39l68 71l50 -52l-69 -73q14 -24 21.5 -53t7.5 -63q0 -68 -30 -119l70 -72l-50 -54l-68 70q-51 -39 -122 -39q-69 0 -119 39l-66 -70l-51 54l69 70q-31 51 -31 120q0 66 32 118l-70 72l51 52l68 -71q50 38 119 39zM270 486q-61 0 -92.5 -39.5
t-31.5 -99.5q0 -38 10.5 -65.5t28 -45.5t39.5 -26.5t46 -8.5q26 0 48.5 8.5t39 26t26 45t9.5 65.5q0 60 -30 100t-93 40z" />
    <glyph glyph-name="yen" unicode="&#xa5;" horiz-adv-x="481" 
d="M282 167v-167h-89v167h-130v61h130v63h-130v61h116l-181 306h101q42 -74 68 -121t41 -75.5t22.5 -43t11.5 -24.5h1q4 9 12 24t23.5 43.5t42 75.5t67.5 121h93l-185 -306h118v-61h-132v-63h132v-61h-132z" />
    <glyph glyph-name="brokenbar" unicode="&#xa6;" horiz-adv-x="234" 
d="M157 179v-358h-75v358h75zM157 689v-356h-75v356h75z" />
    <glyph glyph-name="section" unicode="&#xa7;" horiz-adv-x="560" 
d="M393 535q-4 14 -12 29t-21.5 27t-34 20t-49.5 8q-57 0 -81 -24.5t-24 -60.5q0 -23 10 -39t29 -29t46 -25t62 -25q47 -20 82 -40t58.5 -44t35 -53t11.5 -65q0 -48 -21 -84t-54 -62q17 -17 28.5 -42t11.5 -63q0 -77 -54.5 -122t-149.5 -45q-100 0 -155 43.5t-66 120.5h87
q10 -40 42 -67.5t94 -27.5q60 0 88 23.5t28 67.5q0 21 -6 37.5t-23 31.5t-47.5 29.5t-79.5 31.5q-53 19 -89 39t-58 43t-31 50.5t-9 60.5q0 46 24.5 84.5t62.5 61.5q-41 38 -41 101q0 33 12.5 62.5t36.5 51.5t60 34.5t84 12.5q56 0 93 -15.5t59.5 -39t32.5 -50t12 -47.5h-84
zM122 292q0 -18 4.5 -34t17.5 -31t37.5 -29.5t65.5 -29.5q44 -16 76.5 -30t54.5 -28q20 15 31.5 40t11.5 51q0 21 -5.5 39t-19.5 33.5t-38 31t-62 32.5q-33 14 -61 26t-52 25q-28 -18 -44.5 -42.5t-16.5 -53.5z" />
    <glyph glyph-name="dieresis" unicode="&#xa8;" 
d="M70 625v109h77v-109h-77zM253 625v109h76v-109h-76z" />
    <glyph glyph-name="copyright" unicode="&#xa9;" horiz-adv-x="791" 
d="M561 278q-14 -60 -55 -95.5t-110 -35.5q-40 0 -73.5 15t-57.5 41.5t-37 63.5t-13 82q0 43 13 80.5t36.5 65t57.5 43t76 15.5q39 0 68.5 -11.5t50 -30.5t31.5 -43t14 -48h-63q-9 30 -31.5 53.5t-70.5 23.5q-51 0 -83 -37t-32 -109q0 -69 32.5 -108t82.5 -39q75 0 101 74
h63zM392 705q74 0 137 -26.5t108.5 -74t71 -112.5t25.5 -143t-26 -144t-71.5 -113.5t-108.5 -74.5t-136 -27q-75 0 -138 26t-108.5 73t-71.5 113.5t-26 146.5q0 77 26 142t72.5 112.5t109 74.5t136.5 27zM391 653q-60 0 -112.5 -20.5t-91 -60t-60.5 -96.5t-22 -130
q0 -66 22 -121.5t60 -96t90.5 -63.5t113.5 -23t113.5 21.5t90.5 61t60 96.5t22 128q0 66 -21.5 122t-59.5 96.5t-90.5 63t-114.5 22.5z" />
    <glyph glyph-name="ordfeminine" unicode="&#xaa;" horiz-adv-x="352" 
d="M305 334v-38t1 -36h-65q-2 9 -2 23t-1 23q-16 -28 -42 -39t-60 -11q-57 0 -85.5 30.5t-28.5 72.5q0 56 40.5 82t109.5 26h64v26q0 22 -13 40.5t-52 18.5q-34 0 -48 -14t-18 -38h-67q2 19 9.5 37.5t23.5 32.5t41 23t62 9q40 0 65.5 -10t40 -26t20 -36.5t5.5 -40.5v-155z
M238 419h-61q-85 0 -85 -53q0 -23 15 -38.5t49 -15.5q43 0 62.5 27t19.5 71v9z" />
    <glyph glyph-name="guillemotleft" unicode="&#xab;" horiz-adv-x="546" 
d="M143 260l151 -196h-83l-154 196l154 193h83zM336 260l153 -196h-85l-153 196l153 193h85z" />
    <glyph glyph-name="logicalnot" unicode="&#xac;" horiz-adv-x="713" 
d="M623 405v-321h-79v243h-469v78h548z" />
    <glyph glyph-name="uni00AD" unicode="&#xad;" horiz-adv-x="378" 
d="M320 296v-80h-262v80h262z" />
    <glyph glyph-name="registered" unicode="&#xae;" horiz-adv-x="351" 
d="M119 456v167h71q27 0 46.5 -11t19.5 -37q0 -16 -9.5 -26t-18.5 -13q10 -4 16.5 -14t6.5 -30v-17t2 -19h-39q-2 7 -3 18t-1 17q0 16 -5 23t-22 7h-24v-65h-40zM159 550h28q12 0 19.5 4.5t7.5 18.5q0 11 -6 16.5t-21 5.5h-28v-45zM185 706q37 0 67 -13.5t51.5 -37t33 -54
t11.5 -64.5q0 -36 -11.5 -67t-33 -54t-51.5 -36t-67 -13q-35 0 -65 13t-52 35.5t-34.5 54t-12.5 67.5q0 35 12 66t34 54t52 36t66 13zM185 672q-32 0 -55.5 -11.5t-39.5 -30t-24 -43t-8 -50.5q0 -28 9.5 -52.5t26.5 -43t40.5 -29t50.5 -10.5q62 0 93.5 38t31.5 96
q0 28 -9 53t-25.5 43.5t-39.5 29t-51 10.5z" />
    <glyph glyph-name="macron" unicode="&#xaf;" 
d="M338 699v-71h-277v71h277z" />
    <glyph glyph-name="degree" unicode="&#xb0;" horiz-adv-x="324" 
d="M167 685q31 0 56.5 -11t42.5 -29t26.5 -42t9.5 -51q0 -32 -11 -57.5t-30 -43.5t-43.5 -27.5t-52.5 -9.5q-30 0 -54.5 10t-42 27.5t-27 42t-9.5 53.5q0 30 10.5 55.5t28.5 43.5t42.5 28.5t53.5 10.5zM166 637q-38 0 -58 -26t-20 -62q0 -37 21.5 -61.5t56.5 -24.5
q37 0 58.5 24.5t21.5 62.5q0 15 -5 30.5t-14.5 28t-24.5 20.5t-36 8z" />
    <glyph glyph-name="plusminus" unicode="&#xb1;" horiz-adv-x="713" 
d="M393 668v-225h237v-71h-237v-229h-73v229h-237v71h237v225h73zM83 0v72h548v-72h-548z" />
    <glyph glyph-name="two.sups" unicode="&#xb2;" horiz-adv-x="362" 
d="M37 429v5q0 53 30.5 98t100.5 88q25 15 40.5 26t24.5 20.5t12 19t3 22.5q0 29 -16.5 46.5t-50.5 17.5q-31 0 -51 -17.5t-26 -54.5h-69q6 60 45.5 95.5t103.5 35.5q39 0 65.5 -11.5t43 -29.5t23.5 -39t7 -40q0 -24 -6.5 -42t-20 -33t-33 -28t-45.5 -28q-33 -20 -61 -43.5
t-36 -48.5h218l-11 -59h-291z" />
    <glyph glyph-name="three.sups" unicode="&#xb3;" horiz-adv-x="372" 
d="M147 669h33q36 0 51.5 14t15.5 35q0 22 -15 39t-53 17q-20 0 -33.5 -5.5t-22 -13.5t-13 -18.5t-7.5 -19.5h-65q1 13 8.5 32.5t23.5 37.5t43 30.5t69 12.5q69 0 102.5 -31.5t33.5 -76.5q0 -34 -18.5 -53t-38.5 -27q29 -8 51.5 -32t22.5 -63q0 -23 -8 -45t-26.5 -39
t-47.5 -28t-71 -11q-45 0 -74 13t-46 32t-24 39t-9 35h69q5 -26 27.5 -44.5t58.5 -18.5q38 0 57.5 18t19.5 47q0 33 -21 48.5t-56 15.5h-37v60z" />
    <glyph glyph-name="acute" unicode="&#xb4;" 
d="M375 744l-154 -153h-82l128 153h108z" />
    <glyph glyph-name="uni00B5" unicode="&#xb5;" horiz-adv-x="553" 
d="M248 -10q-25 0 -49 8.5t-44 35.5q1 -12 1.5 -41t1.5 -64.5t1.5 -71.5t0.5 -62h-87v49v63.5v72v73v67v54.5v333h87v-315q0 -24 4 -46.5t15 -40.5t31 -28.5t52 -10.5q58 0 93.5 39t35.5 126v276h88v-361q0 -48 0.5 -88t1.5 -58h-85q-2 9 -3 32t-2 48q-19 -41 -51.5 -65.5
t-91.5 -24.5z" />
    <glyph glyph-name="paragraph" unicode="&#xb6;" horiz-adv-x="601" 
d="M406 -157v296h-127q-117 0 -176.5 68t-59.5 184q0 115 59.5 182t176.5 67h128q0 14 1 31t3 25h66q0 -7 -0.5 -18.5t-0.5 -23.5v-23v-18v-770h-70zM406 211v360h-46q-31 0 -49 -14t-27 -37.5t-11.5 -55.5t-2.5 -68q0 -32 1 -65t9.5 -59.5t26.5 -43.5t52 -17h47z" />
    <glyph glyph-name="periodcentered" unicode="&#xb7;" horiz-adv-x="203" 
d="M55 200v148h92v-148h-92z" />
    <glyph glyph-name="cedilla" unicode="&#xb8;" 
d="M247 0l-41 -51q13 -2 30 -7.5t32 -16t25 -28t10 -42.5q0 -30 -12 -48.5t-30 -29.5t-40 -15t-42 -4q-26 0 -44 3.5t-28 8.5v60q12 -5 32.5 -8t32.5 -3q53 0 53 35q0 14 -9 22.5t-23 13.5t-33 7t-38 2v28l63 83z" />
    <glyph glyph-name="one.sups" unicode="&#xb9;" horiz-adv-x="249" 
d="M107 428v314q-8 -5 -20 -8.5t-24 -6.5t-23 -4.5t-17 -1.5v55q35 6 61.5 21.5t45.5 33.5h49v-403h-72z" />
    <glyph glyph-name="ordmasculine" unicode="&#xba;" horiz-adv-x="377" 
d="M191 602q74 0 116.5 -47t42.5 -126q0 -43 -12.5 -75.5t-34.5 -54t-52 -32.5t-65 -11t-64.5 12t-50.5 34.5t-32.5 54.5t-11.5 71q0 41 12.5 73t34.5 54.5t52 34.5t65 12zM188 548q-44 0 -67.5 -31t-23.5 -88q0 -54 24 -86.5t67 -32.5q45 0 68.5 29.5t23.5 89.5
q-1 55 -23.5 87t-68.5 32z" />
    <glyph glyph-name="guillemotright" unicode="&#xbb;" horiz-adv-x="546" 
d="M403 258l-151 195h84l153 -195l-153 -194h-83zM210 258l-153 195h85l153 -195l-153 -194h-85z" />
    <glyph glyph-name="onequarter" unicode="&#xbc;" horiz-adv-x="777" 
d="M108 1l431 658h70l-430 -658h-71zM117 261v314q-8 -5 -20 -8.5t-24 -6.5t-23 -4.5t-17 -1.5v55q35 6 61.5 21.5t45.5 33.5h49v-403h-72zM621 0v103h-198v55l181 237h84v-236h61l-6 -56h-55v-103h-67zM621 159v81v20.5t0.5 26.5t1 27t1.5 22q-6 -10 -21.5 -31.5t-35 -47
t-39 -52t-34.5 -46.5h127z" />
    <glyph glyph-name="onehalf" unicode="&#xbd;" horiz-adv-x="813" 
d="M106 0l431 658h70l-430 -658h-71zM120 261v314q-8 -5 -20 -8.5t-24 -6.5t-23 -4.5t-17 -1.5v55q35 6 61.5 21.5t45.5 33.5h49v-403h-72zM479 0v5q0 53 30.5 98t100.5 88q25 15 40.5 26t24.5 20.5t12 19t3 22.5q0 29 -16.5 46.5t-50.5 17.5q-31 0 -51 -17.5t-26 -54.5h-69
q6 60 45.5 95.5t103.5 35.5q39 0 65.5 -11.5t43 -29.5t23.5 -39t7 -40q0 -24 -6.5 -42t-20 -33t-33 -28t-45.5 -28q-33 -20 -61 -43.5t-36 -48.5h218l-11 -59h-291z" />
    <glyph glyph-name="threequarters" unicode="&#xbe;" horiz-adv-x="860" 
d="M217 1l431 658h70l-430 -658h-71zM710 0v103h-198v55l181 237h84v-236h61l-6 -56h-55v-103h-67zM710 159v81v20.5t0.5 26.5t1 27t1.5 22q-6 -10 -21.5 -31.5t-35 -47t-39 -52t-34.5 -46.5h127zM162 502h33q36 0 51.5 14t15.5 35q0 22 -15 39t-53 17q-20 0 -33.5 -5.5
t-22 -13.5t-13 -18.5t-7.5 -19.5h-65q1 13 8.5 32.5t23.5 37.5t43 30.5t69 12.5q69 0 102.5 -31.5t33.5 -76.5q0 -34 -18.5 -53t-38.5 -27q29 -8 51.5 -32t22.5 -63q0 -23 -8 -45t-26.5 -39t-47.5 -28t-71 -11q-45 0 -74 13t-46 32t-24 39t-9 35h69q5 -26 27.5 -44.5
t58.5 -18.5q38 0 57.5 18t19.5 47q0 33 -21 48.5t-56 15.5h-37v60z" />
    <glyph glyph-name="questiondown" unicode="&#xbf;" horiz-adv-x="446" 
d="M22 -23q0 26 4.5 49t15.5 45t29.5 44t45.5 47q37 34 52 62t15 64v8h90v-16q0 -20 -4 -39t-14.5 -39.5t-29 -43t-47.5 -48.5q-22 -20 -36 -37.5t-21.5 -33.5t-10 -31t-2.5 -30q0 -19 6.5 -37.5t20.5 -33.5t34.5 -24.5t49.5 -9.5q54 0 85.5 27.5t39.5 90.5h79
q-1 -29 -11 -62t-33.5 -61.5t-63.5 -47.5t-102 -19q-50 0 -86 15t-59.5 40t-35 56.5t-11.5 64.5zM274 507v-138h-90v138h90z" />
    <glyph glyph-name="Agrave" unicode="&#xc0;" horiz-adv-x="660" 
d="M187 209l-75 -209h-92l248 696h113l259 -696h-99l-77 209h-277zM441 288q-25 69 -44.5 122t-34 93.5t-24 69t-15.5 48.5h-1q-13 -45 -42 -130t-69 -203h230zM235 895l137 -137h-89l-164 137h116z" />
    <glyph glyph-name="Aacute" unicode="&#xc1;" horiz-adv-x="660" 
d="M187 209l-75 -209h-92l248 696h113l259 -696h-99l-77 209h-277zM441 288q-25 69 -44.5 122t-34 93.5t-24 69t-15.5 48.5h-1q-13 -45 -42 -130t-69 -203h230zM539 895l-171 -137h-91l147 137h115z" />
    <glyph glyph-name="Acircumflex" unicode="&#xc2;" horiz-adv-x="660" 
d="M187 209l-75 -209h-92l248 696h113l259 -696h-99l-77 209h-277zM441 288q-25 69 -44.5 122t-34 93.5t-24 69t-15.5 48.5h-1q-13 -45 -42 -130t-69 -203h230zM373 889l130 -131h-93l-84 83l-89 -83h-92l136 131h92z" />
    <glyph glyph-name="Atilde" unicode="&#xc3;" horiz-adv-x="660" 
d="M187 209l-75 -209h-92l248 696h113l259 -696h-99l-77 209h-277zM441 288q-25 69 -44.5 122t-34 93.5t-24 69t-15.5 48.5h-1q-13 -45 -42 -130t-69 -203h230zM154 766v22q0 55 23.5 76.5t62.5 21.5q23 0 46 -8.5t44 -18t39 -18t32 -8.5t23 9t9 34v12h61v-21
q0 -59 -22.5 -81t-62.5 -22q-22 0 -44 8.5t-43 18t-40 18t-35 8.5q-13 0 -21 -7.5t-8 -26.5v-17h-64z" />
    <glyph glyph-name="Adieresis" unicode="&#xc4;" horiz-adv-x="660" 
d="M187 209l-75 -209h-92l248 696h113l259 -696h-99l-77 209h-277zM441 288q-25 69 -44.5 122t-34 93.5t-24 69t-15.5 48.5h-1q-13 -45 -42 -130t-69 -203h230zM188 770v110h77v-110h-77zM384 770v110h76v-110h-76z" />
    <glyph glyph-name="Aring" unicode="&#xc5;" horiz-adv-x="660" 
d="M187 209l-75 -209h-92l248 696h113l259 -696h-99l-77 209h-277zM441 288q-25 69 -44.5 122t-34 93.5t-24 69t-15.5 48.5h-1q-13 -45 -42 -130t-69 -203h230zM325 733q-50 0 -78.5 28t-28.5 69q0 40 28 69.5t79 29.5q50 0 78 -28t28 -70t-29 -70t-77 -28zM325 778
q26 0 39 16t13 36t-12.5 37t-39.5 17t-39.5 -16t-12.5 -36t12 -37t40 -17z" />
    <glyph glyph-name="AE" unicode="&#xc6;" horiz-adv-x="968" 
d="M916 696v-80h-362v-211h345v-80h-345v-245h379l-12 -80h-458v237h-236l-148 -237h-100l434 696h503zM463 317v306h-3l-189 -306h192z" />
    <glyph glyph-name="Ccedilla" unicode="&#xc7;" horiz-adv-x="686" 
d="M643 197q-12 -44 -34.5 -82t-56.5 -65.5t-80.5 -43t-105.5 -15.5q-78 0 -136.5 28t-98 76t-59 112.5t-19.5 138.5q0 71 19.5 136t59 115t99 79.5t138.5 29.5q61 0 109 -16.5t82 -45t54.5 -67t28.5 -81.5h-92q-9 28 -24 52.5t-37 42.5t-52.5 28t-71.5 10q-58 0 -99 -24
t-67 -63.5t-38 -90t-12 -102.5q0 -51 11.5 -101.5t38 -90.5t68.5 -64.5t102 -24.5q40 0 69.5 10.5t51 28.5t35.5 41.5t24 48.5h93zM412 0l-41 -51q13 -2 30 -7.5t32 -16t25 -28t10 -42.5q0 -30 -12 -48.5t-30 -29.5t-40 -15t-42 -4q-26 0 -44 3.5t-28 8.5v60q12 -5 32.5 -8
t32.5 -3q53 0 53 35q0 14 -9 22.5t-23 13.5t-33 7t-38 2v28l63 83z" />
    <glyph glyph-name="Egrave" unicode="&#xc8;" horiz-adv-x="597" 
d="M528 325h-346v-246h380l-12 -79h-458v696h453v-79h-363v-213h346v-79zM242 905l137 -137h-89l-164 137h116z" />
    <glyph glyph-name="Eacute" unicode="&#xc9;" horiz-adv-x="597" 
d="M528 325h-346v-246h380l-12 -79h-458v696h453v-79h-363v-213h346v-79zM523 903l-171 -137h-91l147 137h115z" />
    <glyph glyph-name="Ecircumflex" unicode="&#xca;" horiz-adv-x="597" 
d="M528 325h-346v-246h380l-12 -79h-458v696h453v-79h-363v-213h346v-79zM367 895l130 -131h-93l-84 83l-89 -83h-92l136 131h92z" />
    <glyph glyph-name="Edieresis" unicode="&#xcb;" horiz-adv-x="597" 
d="M528 325h-346v-246h380l-12 -79h-458v696h453v-79h-363v-213h346v-79zM183 775v110h77v-110h-77zM379 775v110h76v-110h-76z" />
    <glyph glyph-name="Igrave" unicode="&#xcc;" horiz-adv-x="276" 
d="M184 696v-696h-92v696h92zM52 898l137 -137h-89l-164 137h116z" />
    <glyph glyph-name="Iacute" unicode="&#xcd;" horiz-adv-x="276" 
d="M184 696v-696h-92v696h92zM354 895l-171 -137h-91l147 137h115z" />
    <glyph glyph-name="Icircumflex" unicode="&#xce;" horiz-adv-x="276" 
d="M184 696v-696h-92v696h92zM188 889l130 -131h-93l-84 83l-89 -83h-92l136 131h92z" />
    <glyph glyph-name="Idieresis" unicode="&#xcf;" horiz-adv-x="276" 
d="M184 696v-696h-92v696h92zM3 770v110h77v-110h-77zM199 770v110h76v-110h-76z" />
    <glyph glyph-name="Eth" unicode="&#xd0;" horiz-adv-x="730" 
d="M102 393v303h248q73 0 133.5 -24t104 -68.5t67 -107.5t23.5 -141q0 -77 -23.5 -142.5t-66.5 -112.5t-104 -73.5t-137 -26.5h-245v323h-84v70h84zM194 393h180v-70h-180v-245h146q61 0 106.5 21t75.5 57.5t44.5 87t14.5 109.5q0 51 -14 99t-43 84.5t-74.5 58.5t-109.5 22
h-146v-224z" />
    <glyph glyph-name="Ntilde" unicode="&#xd1;" horiz-adv-x="744" 
d="M92 0v696h122q25 -41 58.5 -95t69.5 -112.5t72.5 -117.5t68 -110.5t54.5 -90.5t33 -58h1q-5 67 -5.5 147t-0.5 165v272h87v-696h-115q-23 38 -55.5 91.5t-69 114t-74 122.5t-70 116t-57 95.5t-35.5 61.5h-2q4 -60 4.5 -144t0.5 -179v-278h-87zM202 766v22q0 55 23.5 76.5
t62.5 21.5q23 0 46 -8.5t44 -18t39 -18t32 -8.5t23 9t9 34v12h61v-21q0 -59 -22.5 -81t-62.5 -22q-22 0 -44 8.5t-43 18t-40 18t-35 8.5q-13 0 -21 -7.5t-8 -26.5v-17h-64z" />
    <glyph glyph-name="Ograve" unicode="&#xd2;" horiz-adv-x="751" 
d="M380 706q73 0 132 -26t100.5 -73t63.5 -112t22 -143q0 -72 -20 -137.5t-60.5 -115.5t-102 -79.5t-143.5 -29.5q-77 0 -136.5 28t-100 76t-61.5 113.5t-21 140.5t21.5 140t63 113.5t102.5 76.5t140 28zM376 627q-59 0 -101.5 -22.5t-70.5 -60t-41 -88t-13 -105.5
q0 -56 14 -107t42.5 -90t71 -62t98.5 -23q60 0 103 23t70.5 62t40 89.5t12.5 106.5t-14 106.5t-42 88.5t-70.5 60t-99.5 22zM299 908l137 -137h-89l-164 137h116z" />
    <glyph glyph-name="Oacute" unicode="&#xd3;" horiz-adv-x="751" 
d="M380 706q73 0 132 -26t100.5 -73t63.5 -112t22 -143q0 -72 -20 -137.5t-60.5 -115.5t-102 -79.5t-143.5 -29.5q-77 0 -136.5 28t-100 76t-61.5 113.5t-21 140.5t21.5 140t63 113.5t102.5 76.5t140 28zM376 627q-59 0 -101.5 -22.5t-70.5 -60t-41 -88t-13 -105.5
q0 -56 14 -107t42.5 -90t71 -62t98.5 -23q60 0 103 23t70.5 62t40 89.5t12.5 106.5t-14 106.5t-42 88.5t-70.5 60t-99.5 22zM582 902l-171 -137h-91l147 137h115z" />
    <glyph glyph-name="Ocircumflex" unicode="&#xd4;" horiz-adv-x="751" 
d="M380 706q73 0 132 -26t100.5 -73t63.5 -112t22 -143q0 -72 -20 -137.5t-60.5 -115.5t-102 -79.5t-143.5 -29.5q-77 0 -136.5 28t-100 76t-61.5 113.5t-21 140.5t21.5 140t63 113.5t102.5 76.5t140 28zM376 627q-59 0 -101.5 -22.5t-70.5 -60t-41 -88t-13 -105.5
q0 -56 14 -107t42.5 -90t71 -62t98.5 -23q60 0 103 23t70.5 62t40 89.5t12.5 106.5t-14 106.5t-42 88.5t-70.5 60t-99.5 22zM424 893l130 -131h-93l-84 83l-89 -83h-92l136 131h92z" />
    <glyph glyph-name="Otilde" unicode="&#xd5;" horiz-adv-x="751" 
d="M380 706q73 0 132 -26t100.5 -73t63.5 -112t22 -143q0 -72 -20 -137.5t-60.5 -115.5t-102 -79.5t-143.5 -29.5q-77 0 -136.5 28t-100 76t-61.5 113.5t-21 140.5t21.5 140t63 113.5t102.5 76.5t140 28zM376 627q-59 0 -101.5 -22.5t-70.5 -60t-41 -88t-13 -105.5
q0 -56 14 -107t42.5 -90t71 -62t98.5 -23q60 0 103 23t70.5 62t40 89.5t12.5 106.5t-14 106.5t-42 88.5t-70.5 60t-99.5 22zM205 771v22q0 55 23.5 76.5t62.5 21.5q23 0 46 -8.5t44 -18t39 -18t32 -8.5t23 9t9 34v12h61v-21q0 -59 -22.5 -81t-62.5 -22q-22 0 -44 8.5t-43 18
t-40 18t-35 8.5q-13 0 -21 -7.5t-8 -26.5v-17h-64z" />
    <glyph glyph-name="Odieresis" unicode="&#xd6;" horiz-adv-x="751" 
d="M380 706q73 0 132 -26t100.5 -73t63.5 -112t22 -143q0 -72 -20 -137.5t-60.5 -115.5t-102 -79.5t-143.5 -29.5q-77 0 -136.5 28t-100 76t-61.5 113.5t-21 140.5t21.5 140t63 113.5t102.5 76.5t140 28zM376 627q-59 0 -101.5 -22.5t-70.5 -60t-41 -88t-13 -105.5
q0 -56 14 -107t42.5 -90t71 -62t98.5 -23q60 0 103 23t70.5 62t40 89.5t12.5 106.5t-14 106.5t-42 88.5t-70.5 60t-99.5 22zM239 775v110h77v-110h-77zM435 775v110h76v-110h-76z" />
    <glyph glyph-name="multiply" unicode="&#xd7;" horiz-adv-x="713" 
d="M575 0l-218 228l-218 -228l-52 54l219 227l-219 229l51 52l219 -228l219 228l51 -52l-219 -229l219 -227z" />
    <glyph glyph-name="Oslash" unicode="&#xd8;" horiz-adv-x="751" 
d="M380 706q50 0 92.5 -12t78.5 -35l26 37h70l-52 -72q51 -48 78 -118t27 -154q0 -74 -20 -139.5t-61 -115t-102.5 -78.5t-144.5 -29q-56 0 -102 15t-84 43l-34 -48h-70l62 87q-45 49 -68 116t-23 145q0 73 22 138.5t64 114t102.5 77t138.5 28.5zM146 351q0 -52 13 -101
t39 -87l305 429q-26 17 -57.5 27t-69.5 10q-56 0 -99 -21t-72 -58t-44 -88t-15 -111zM376 67q60 0 103.5 22.5t71.5 61t41 90t13 109.5q0 60 -15 112t-45 90l-309 -434q27 -24 62 -37.5t78 -13.5z" />
    <glyph glyph-name="Ugrave" unicode="&#xd9;" horiz-adv-x="714" 
d="M179 696v-419q0 -62 15.5 -102t40.5 -64t57.5 -33.5t65.5 -9.5q39 0 71.5 10t56.5 34t37 64.5t13 100.5v419h93v-414q0 -85 -22 -141t-59 -89.5t-87 -47t-105 -13.5q-54 0 -103.5 14.5t-86.5 47.5t-59 87.5t-22 134.5v421h94zM282 895l137 -137h-89l-164 137h116z" />
    <glyph glyph-name="Uacute" unicode="&#xda;" horiz-adv-x="714" 
d="M179 696v-419q0 -62 15.5 -102t40.5 -64t57.5 -33.5t65.5 -9.5q39 0 71.5 10t56.5 34t37 64.5t13 100.5v419h93v-414q0 -85 -22 -141t-59 -89.5t-87 -47t-105 -13.5q-54 0 -103.5 14.5t-86.5 47.5t-59 87.5t-22 134.5v421h94zM563 895l-171 -137h-91l147 137h115z" />
    <glyph glyph-name="Ucircumflex" unicode="&#xdb;" horiz-adv-x="714" 
d="M179 696v-419q0 -62 15.5 -102t40.5 -64t57.5 -33.5t65.5 -9.5q39 0 71.5 10t56.5 34t37 64.5t13 100.5v419h93v-414q0 -85 -22 -141t-59 -89.5t-87 -47t-105 -13.5q-54 0 -103.5 14.5t-86.5 47.5t-59 87.5t-22 134.5v421h94zM406 897l130 -131h-93l-84 83l-89 -83h-92
l136 131h92z" />
    <glyph glyph-name="Udieresis" unicode="&#xdc;" horiz-adv-x="714" 
d="M179 696v-419q0 -62 15.5 -102t40.5 -64t57.5 -33.5t65.5 -9.5q39 0 71.5 10t56.5 34t37 64.5t13 100.5v419h93v-414q0 -85 -22 -141t-59 -89.5t-87 -47t-105 -13.5q-54 0 -103.5 14.5t-86.5 47.5t-59 87.5t-22 134.5v421h94zM221 770v110h77v-110h-77zM417 770v110h76
v-110h-76z" />
    <glyph glyph-name="Yacute" unicode="&#xdd;" horiz-adv-x="591" 
d="M245 0v255q0 13 -5 19l-245 422h106q24 -42 53 -94t56.5 -102.5t51 -92.5t35.5 -65q11 22 34.5 64.5t52 92.5t58.5 102.5l54 94.5h99l-253 -424q-2 -3 -3 -6.5t-1 -11.5v-254h-93zM502 894l-171 -137h-91l147 137h115z" />
    <glyph glyph-name="Thorn" unicode="&#xde;" horiz-adv-x="628" 
d="M92 696h92v-137h159q61 0 105.5 -15.5t73.5 -42.5t43 -63.5t14 -78.5q0 -100 -65 -154t-179 -54h-151v-151h-92v696zM184 229h148q33 0 61 6t48.5 21t32 39.5t11.5 62.5q0 62 -39.5 93t-110.5 31h-151v-253z" />
    <glyph glyph-name="germandbls" unicode="&#xdf;" horiz-adv-x="586" 
d="M300 745q60 0 102 -17t68.5 -43.5t39.5 -60t14 -66.5v-16t-2 -16l-170 -116v-1l80 -56q35 -25 58.5 -47.5t37.5 -44.5t19.5 -45t5.5 -49q0 -39 -13 -71t-37.5 -55.5t-60 -36.5t-80.5 -13q-53 0 -91 13.5t-61 33.5v88q32 -32 72 -48t78 -16q30 0 50 9t33 22.5t18.5 30.5
t5.5 34q0 34 -18 62t-69 64l-90 63q-35 25 -36 53.5t37 54.5l143 98q0 17 -5.5 38t-20.5 39t-41.5 30t-67.5 12q-31 0 -56 -7t-43 -23.5t-28 -45t-10 -70.5v-526h-88v532q0 58 17 98.5t47 66t71.5 37t90.5 11.5z" />
    <glyph glyph-name="agrave" unicode="&#xe0;" horiz-adv-x="529" 
d="M453 111q0 -35 2.5 -67.5t4.5 -43.5h-84q-6 18 -8 66q-7 -12 -18.5 -26t-30 -25.5t-45 -19t-63.5 -7.5q-45 0 -77.5 13.5t-53 35t-30.5 49.5t-10 57q0 85 63 125t177 40h86v43q0 17 -3.5 34.5t-15 32t-33 23.5t-57.5 9q-32 0 -51.5 -7t-31 -18.5t-17 -26t-8.5 -29.5h-85
q3 26 13 53t32.5 48.5t59 35t91.5 13.5q94 0 143.5 -39.5t49.5 -126.5v-242zM367 247h-82q-76 0 -115.5 -22.5t-39.5 -76.5q0 -40 25.5 -65.5t73.5 -25.5q46 0 73 14t41.5 38t19 55.5t4.5 66.5v16zM192 744l128 -153h-83l-154 153h109z" />
    <glyph glyph-name="aacute" unicode="&#xe1;" horiz-adv-x="529" 
d="M453 111q0 -35 2.5 -67.5t4.5 -43.5h-84q-6 18 -8 66q-7 -12 -18.5 -26t-30 -25.5t-45 -19t-63.5 -7.5q-45 0 -77.5 13.5t-53 35t-30.5 49.5t-10 57q0 85 63 125t177 40h86v43q0 17 -3.5 34.5t-15 32t-33 23.5t-57.5 9q-32 0 -51.5 -7t-31 -18.5t-17 -26t-8.5 -29.5h-85
q3 26 13 53t32.5 48.5t59 35t91.5 13.5q94 0 143.5 -39.5t49.5 -126.5v-242zM367 247h-82q-76 0 -115.5 -22.5t-39.5 -76.5q0 -40 25.5 -65.5t73.5 -25.5q46 0 73 14t41.5 38t19 55.5t4.5 66.5v16zM440 744l-154 -153h-82l128 153h108z" />
    <glyph glyph-name="acircumflex" unicode="&#xe2;" horiz-adv-x="529" 
d="M453 111q0 -35 2.5 -67.5t4.5 -43.5h-84q-6 18 -8 66q-7 -12 -18.5 -26t-30 -25.5t-45 -19t-63.5 -7.5q-45 0 -77.5 13.5t-53 35t-30.5 49.5t-10 57q0 85 63 125t177 40h86v43q0 17 -3.5 34.5t-15 32t-33 23.5t-57.5 9q-32 0 -51.5 -7t-31 -18.5t-17 -26t-8.5 -29.5h-85
q3 26 13 53t32.5 48.5t59 35t91.5 13.5q94 0 143.5 -39.5t49.5 -126.5v-242zM367 247h-82q-76 0 -115.5 -22.5t-39.5 -76.5q0 -40 25.5 -65.5t73.5 -25.5q46 0 73 14t41.5 38t19 55.5t4.5 66.5v16zM306 734l111 -152h-86l-67 101l-66 -101h-85l110 152h83z" />
    <glyph glyph-name="atilde" unicode="&#xe3;" horiz-adv-x="529" 
d="M453 111q0 -35 2.5 -67.5t4.5 -43.5h-84q-6 18 -8 66q-7 -12 -18.5 -26t-30 -25.5t-45 -19t-63.5 -7.5q-45 0 -77.5 13.5t-53 35t-30.5 49.5t-10 57q0 85 63 125t177 40h86v43q0 17 -3.5 34.5t-15 32t-33 23.5t-57.5 9q-32 0 -51.5 -7t-31 -18.5t-17 -26t-8.5 -29.5h-85
q3 26 13 53t32.5 48.5t59 35t91.5 13.5q94 0 143.5 -39.5t49.5 -126.5v-242zM367 247h-82q-76 0 -115.5 -22.5t-39.5 -76.5q0 -40 25.5 -65.5t73.5 -25.5q46 0 73 14t41.5 38t19 55.5t4.5 66.5v16zM110 605v23q0 54 22 75t59 21q21 0 40.5 -7.5t37 -17t33 -17t29.5 -7.5
t21 8.5t7 33.5v10h61v-21q0 -57 -22.5 -79.5t-60.5 -22.5q-21 0 -39.5 8t-35.5 17t-32.5 17t-31.5 8q-13 0 -19.5 -7.5t-6.5 -25.5v-16h-62z" />
    <glyph glyph-name="adieresis" unicode="&#xe4;" horiz-adv-x="529" 
d="M453 111q0 -35 2.5 -67.5t4.5 -43.5h-84q-6 18 -8 66q-7 -12 -18.5 -26t-30 -25.5t-45 -19t-63.5 -7.5q-45 0 -77.5 13.5t-53 35t-30.5 49.5t-10 57q0 85 63 125t177 40h86v43q0 17 -3.5 34.5t-15 32t-33 23.5t-57.5 9q-32 0 -51.5 -7t-31 -18.5t-17 -26t-8.5 -29.5h-85
q3 26 13 53t32.5 48.5t59 35t91.5 13.5q94 0 143.5 -39.5t49.5 -126.5v-242zM367 247h-82q-76 0 -115.5 -22.5t-39.5 -76.5q0 -40 25.5 -65.5t73.5 -25.5q46 0 73 14t41.5 38t19 55.5t4.5 66.5v16zM135 625v109h77v-109h-77zM318 625v109h76v-109h-76z" />
    <glyph glyph-name="aring" unicode="&#xe5;" horiz-adv-x="529" 
d="M453 111q0 -35 2.5 -67.5t4.5 -43.5h-84q-6 18 -8 66q-7 -12 -18.5 -26t-30 -25.5t-45 -19t-63.5 -7.5q-45 0 -77.5 13.5t-53 35t-30.5 49.5t-10 57q0 85 63 125t177 40h86v43q0 17 -3.5 34.5t-15 32t-33 23.5t-57.5 9q-32 0 -51.5 -7t-31 -18.5t-17 -26t-8.5 -29.5h-85
q3 26 13 53t32.5 48.5t59 35t91.5 13.5q94 0 143.5 -39.5t49.5 -126.5v-242zM367 247h-82q-76 0 -115.5 -22.5t-39.5 -76.5q0 -40 25.5 -65.5t73.5 -25.5q46 0 73 14t41.5 38t19 55.5t4.5 66.5v16zM265 566q-50 0 -78.5 28t-28.5 69q0 40 28 69.5t79 29.5q50 0 78 -28
t28 -70t-29 -70t-77 -28zM265 611q26 0 39 16t13 36t-12.5 37t-39.5 17t-39.5 -16t-12.5 -36t12 -37t40 -17z" />
    <glyph glyph-name="ae" unicode="&#xe6;" horiz-adv-x="850" 
d="M806 142q-8 -28 -23 -55t-40.5 -48.5t-62.5 -35t-89 -13.5q-39 0 -69 8.5t-53.5 23t-39.5 32.5t-26 36q-30 -57 -79.5 -78.5t-106.5 -21.5q-45 0 -78 12.5t-55 34t-33 49.5t-11 58q0 53 25 85t64 48.5t87.5 21.5t95.5 5h58v43q0 18 -4 36.5t-15.5 33.5t-31.5 24.5
t-52 9.5q-55 0 -78 -22t-30 -62h-93q6 69 55 109.5t140 40.5q65 0 108 -20t60 -61q23 33 65.5 57t106.5 24q57 0 97 -20t65.5 -52.5t37 -73.5t11.5 -83v-23.5t-1 -23.5h-358q-1 -84 37.5 -132.5t104.5 -48.5q55 0 82 22t42 60h87zM371 241h-64q-40 0 -72.5 -3.5t-56 -13.5
t-36.5 -28.5t-13 -47.5q0 -18 7.5 -33.5t21 -27.5t32.5 -19t42 -7q77 0 108 44t31 126v10zM726 304q-2 61 -33 102t-97 42q-61 1 -97.5 -36t-43.5 -108h271z" />
    <glyph glyph-name="ccedilla" unicode="&#xe7;" horiz-adv-x="506" 
d="M475 155q-8 -33 -23.5 -63t-40.5 -53t-61 -37t-84 -14q-106 0 -166 70t-60 193q0 54 15 102.5t44.5 85t72.5 58.5t100 22q55 0 92.5 -17.5t61.5 -43t35.5 -55t13.5 -53.5h-87q-5 19 -13.5 36.5t-22.5 30.5t-34 21t-48 8q-33 0 -59 -14t-44 -39t-27.5 -60.5t-9.5 -78.5
q0 -87 35.5 -140t101.5 -53q48 0 76.5 24.5t44.5 69.5h87zM317 0l-41 -51q13 -2 30 -7.5t32 -16t25 -28t10 -42.5q0 -30 -12 -48.5t-30 -29.5t-40 -15t-42 -4q-26 0 -44 3.5t-28 8.5v60q12 -5 32.5 -8t32.5 -3q53 0 53 35q0 14 -9 22.5t-23 13.5t-33 7t-38 2v28l63 83z" />
    <glyph glyph-name="egrave" unicode="&#xe8;" horiz-adv-x="523" 
d="M127 238q0 -39 10 -71.5t28 -56t43.5 -36.5t57.5 -13q30 0 50.5 7t34.5 18.5t22.5 25.5t14.5 28h89q-8 -24 -22.5 -51t-40 -49.5t-62.5 -37t-89 -14.5q-60 0 -102.5 22.5t-69.5 59t-39.5 83t-12.5 95.5q0 57 14.5 106t43 86t71.5 58t101 21q61 0 103 -22t67 -57t36 -77.5
t11 -82.5v-22t-1 -20h-358zM397 299q0 31 -8.5 59t-24.5 48t-40 32t-56 12q-34 0 -58.5 -11t-41 -31t-26 -48t-12.5 -61h267zM196 744l128 -153h-83l-154 153h109z" />
    <glyph glyph-name="eacute" unicode="&#xe9;" horiz-adv-x="523" 
d="M127 238q0 -39 10 -71.5t28 -56t43.5 -36.5t57.5 -13q30 0 50.5 7t34.5 18.5t22.5 25.5t14.5 28h89q-8 -24 -22.5 -51t-40 -49.5t-62.5 -37t-89 -14.5q-60 0 -102.5 22.5t-69.5 59t-39.5 83t-12.5 95.5q0 57 14.5 106t43 86t71.5 58t101 21q61 0 103 -22t67 -57t36 -77.5
t11 -82.5v-22t-1 -20h-358zM397 299q0 31 -8.5 59t-24.5 48t-40 32t-56 12q-34 0 -58.5 -11t-41 -31t-26 -48t-12.5 -61h267zM443 744l-154 -153h-82l128 153h108z" />
    <glyph glyph-name="ecircumflex" unicode="&#xea;" horiz-adv-x="523" 
d="M127 238q0 -39 10 -71.5t28 -56t43.5 -36.5t57.5 -13q30 0 50.5 7t34.5 18.5t22.5 25.5t14.5 28h89q-8 -24 -22.5 -51t-40 -49.5t-62.5 -37t-89 -14.5q-60 0 -102.5 22.5t-69.5 59t-39.5 83t-12.5 95.5q0 57 14.5 106t43 86t71.5 58t101 21q61 0 103 -22t67 -57t36 -77.5
t11 -82.5v-22t-1 -20h-358zM397 299q0 31 -8.5 59t-24.5 48t-40 32t-56 12q-34 0 -58.5 -11t-41 -31t-26 -48t-12.5 -61h267zM312 734l111 -152h-86l-67 101l-66 -101h-85l110 152h83z" />
    <glyph glyph-name="edieresis" unicode="&#xeb;" horiz-adv-x="523" 
d="M127 238q0 -39 10 -71.5t28 -56t43.5 -36.5t57.5 -13q30 0 50.5 7t34.5 18.5t22.5 25.5t14.5 28h89q-8 -24 -22.5 -51t-40 -49.5t-62.5 -37t-89 -14.5q-60 0 -102.5 22.5t-69.5 59t-39.5 83t-12.5 95.5q0 57 14.5 106t43 86t71.5 58t101 21q61 0 103 -22t67 -57t36 -77.5
t11 -82.5v-22t-1 -20h-358zM397 299q0 31 -8.5 59t-24.5 48t-40 32t-56 12q-34 0 -58.5 -11t-41 -31t-26 -48t-12.5 -61h267zM135 625v109h77v-109h-77zM318 625v109h76v-109h-76z" />
    <glyph glyph-name="igrave" unicode="&#xec;" horiz-adv-x="237" 
d="M75 507h88v-507h-88v507zM35 744l128 -153h-83l-154 153h109z" />
    <glyph glyph-name="iacute" unicode="&#xed;" horiz-adv-x="237" 
d="M75 507h88v-507h-88v507zM311 744l-154 -153h-82l128 153h108z" />
    <glyph glyph-name="icircumflex" unicode="&#xee;" horiz-adv-x="237" 
d="M75 507h88v-507h-88v507zM160 734l111 -152h-86l-67 101l-66 -101h-85l110 152h83z" />
    <glyph glyph-name="idieresis" unicode="&#xef;" horiz-adv-x="237" 
d="M75 507h88v-507h-88v507zM-11 625v109h77v-109h-77zM172 625v109h76v-109h-76z" />
    <glyph glyph-name="eth" unicode="&#xf0;" horiz-adv-x="540" 
d="M105 745q109 -15 190 -64l108 74l28 -47l-88 -60q73 -58 114 -147.5t41 -212.5q0 -78 -17.5 -134.5t-49 -93.5t-74.5 -54.5t-94 -17.5q-54 0 -96 20t-71 55t-44 82t-15 102q0 60 18 107.5t50 80.5t74.5 50t92.5 17q41 0 64.5 -10t42.5 -24q-16 39 -41 73.5t-61 62.5
l-127 -86l-28 46l104 71q-26 14 -56 23.5t-65 17.5v69zM272 429q-36 0 -63 -14.5t-45.5 -39t-28 -58.5t-9.5 -73q0 -36 9 -69t27 -58t44.5 -40t61.5 -15q36 0 63 15.5t44.5 44t26 68t8.5 87.5q0 31 -7 58.5t-23.5 48.5t-43 33t-64.5 12z" />
    <glyph glyph-name="ntilde" unicode="&#xf1;" horiz-adv-x="566" 
d="M75 379v66t-1 62h85q1 -6 2 -17.5t1.5 -24t0.5 -24v-17.5q7 16 19 33t31 30.5t45.5 22.5t63.5 9q36 0 67 -11t54 -34.5t36 -60t13 -87.5v-326h-88v315q0 58 -24.5 93t-82.5 35q-36 0 -61.5 -13t-41.5 -36.5t-23.5 -55.5t-7.5 -70v-268h-88v379zM125 608v23q0 54 22 75
t59 21q21 0 40.5 -7.5t37 -17t33 -17t29.5 -7.5t21 8.5t7 33.5v10h61v-21q0 -57 -22.5 -79.5t-60.5 -22.5q-21 0 -39.5 8t-35.5 17t-32.5 17t-31.5 8q-13 0 -19.5 -7.5t-6.5 -25.5v-16h-62z" />
    <glyph glyph-name="ograve" unicode="&#xf2;" horiz-adv-x="550" 
d="M278 519q53 0 96 -19t73.5 -53.5t47 -83t16.5 -108.5q0 -55 -15.5 -103.5t-46 -85t-75 -57.5t-102.5 -21q-54 0 -97.5 20t-73.5 55t-46 84t-16 106q0 56 16 104.5t46.5 84.5t75 56.5t101.5 20.5zM274 446q-71 0 -108 -53t-37 -139q0 -42 10 -77.5t29 -61t46.5 -40
t61.5 -14.5t61 14t46 39t28.5 60.5t9.5 78.5t-9.5 78.5t-28.5 61t-46 39.5t-63 14zM204 744l128 -153h-83l-154 153h109z" />
    <glyph glyph-name="oacute" unicode="&#xf3;" horiz-adv-x="550" 
d="M278 519q53 0 96 -19t73.5 -53.5t47 -83t16.5 -108.5q0 -55 -15.5 -103.5t-46 -85t-75 -57.5t-102.5 -21q-54 0 -97.5 20t-73.5 55t-46 84t-16 106q0 56 16 104.5t46.5 84.5t75 56.5t101.5 20.5zM274 446q-71 0 -108 -53t-37 -139q0 -42 10 -77.5t29 -61t46.5 -40
t61.5 -14.5t61 14t46 39t28.5 60.5t9.5 78.5t-9.5 78.5t-28.5 61t-46 39.5t-63 14zM451 744l-154 -153h-82l128 153h108z" />
    <glyph glyph-name="ocircumflex" unicode="&#xf4;" horiz-adv-x="550" 
d="M278 519q53 0 96 -19t73.5 -53.5t47 -83t16.5 -108.5q0 -55 -15.5 -103.5t-46 -85t-75 -57.5t-102.5 -21q-54 0 -97.5 20t-73.5 55t-46 84t-16 106q0 56 16 104.5t46.5 84.5t75 56.5t101.5 20.5zM274 446q-71 0 -108 -53t-37 -139q0 -42 10 -77.5t29 -61t46.5 -40
t61.5 -14.5t61 14t46 39t28.5 60.5t9.5 78.5t-9.5 78.5t-28.5 61t-46 39.5t-63 14zM316 734l111 -152h-86l-67 101l-66 -101h-85l110 152h83z" />
    <glyph glyph-name="otilde" unicode="&#xf5;" horiz-adv-x="550" 
d="M278 519q53 0 96 -19t73.5 -53.5t47 -83t16.5 -108.5q0 -55 -15.5 -103.5t-46 -85t-75 -57.5t-102.5 -21q-54 0 -97.5 20t-73.5 55t-46 84t-16 106q0 56 16 104.5t46.5 84.5t75 56.5t101.5 20.5zM274 446q-71 0 -108 -53t-37 -139q0 -42 10 -77.5t29 -61t46.5 -40
t61.5 -14.5t61 14t46 39t28.5 60.5t9.5 78.5t-9.5 78.5t-28.5 61t-46 39.5t-63 14zM120 605v23q0 54 22 75t59 21q21 0 40.5 -7.5t37 -17t33 -17t29.5 -7.5t21 8.5t7 33.5v10h61v-21q0 -57 -22.5 -79.5t-60.5 -22.5q-21 0 -39.5 8t-35.5 17t-32.5 17t-31.5 8
q-13 0 -19.5 -7.5t-6.5 -25.5v-16h-62z" />
    <glyph glyph-name="odieresis" unicode="&#xf6;" horiz-adv-x="550" 
d="M278 519q53 0 96 -19t73.5 -53.5t47 -83t16.5 -108.5q0 -55 -15.5 -103.5t-46 -85t-75 -57.5t-102.5 -21q-54 0 -97.5 20t-73.5 55t-46 84t-16 106q0 56 16 104.5t46.5 84.5t75 56.5t101.5 20.5zM274 446q-71 0 -108 -53t-37 -139q0 -42 10 -77.5t29 -61t46.5 -40
t61.5 -14.5t61 14t46 39t28.5 60.5t9.5 78.5t-9.5 78.5t-28.5 61t-46 39.5t-63 14zM145 625v109h77v-109h-77zM328 625v109h76v-109h-76z" />
    <glyph glyph-name="divide" unicode="&#xf7;" horiz-adv-x="713" 
d="M317 0v130h78v-130h-78zM83 242v78h547v-78h-547zM317 428v131h78v-131h-78z" />
    <glyph glyph-name="oslash" unicode="&#xf8;" horiz-adv-x="550" 
d="M278 519q38 0 71 -10t59 -28l24 33h61l-47 -66q32 -35 48.5 -85t16.5 -110t-17 -109.5t-48.5 -84t-76 -53.5t-98.5 -19q-74 0 -128 37l-25 -34h-60l48 67q-33 36 -50.5 86t-17.5 109q0 63 18 112.5t50 84t76 52.5t96 18zM274 449q-37 0 -65 -14.5t-46.5 -40t-28 -61.5
t-9.5 -79q0 -38 8 -70t22 -57l209 292q-38 30 -90 30zM275 57q69 0 109 52t40 143q0 80 -28 127l-208 -291q36 -31 87 -31z" />
    <glyph glyph-name="ugrave" unicode="&#xf9;" horiz-adv-x="557" 
d="M482 148v-40t0.5 -41.5t0.5 -38v-28.5h-85q-2 10 -2.5 31t-1.5 45q-19 -42 -56 -65t-97 -23q-32 0 -62.5 9t-54 30.5t-37.5 57t-14 89.5v333h87v-315q0 -25 4.5 -48t16.5 -41t32 -28.5t52 -10.5q70 0 99.5 41.5t29.5 137.5v264h88v-359zM207 744l128 -153h-83l-154 153
h109z" />
    <glyph glyph-name="uacute" unicode="&#xfa;" horiz-adv-x="557" 
d="M482 148v-40t0.5 -41.5t0.5 -38v-28.5h-85q-2 10 -2.5 31t-1.5 45q-19 -42 -56 -65t-97 -23q-32 0 -62.5 9t-54 30.5t-37.5 57t-14 89.5v333h87v-315q0 -25 4.5 -48t16.5 -41t32 -28.5t52 -10.5q70 0 99.5 41.5t29.5 137.5v264h88v-359zM459 744l-154 -153h-82l128 153
h108z" />
    <glyph glyph-name="ucircumflex" unicode="&#xfb;" horiz-adv-x="557" 
d="M482 148v-40t0.5 -41.5t0.5 -38v-28.5h-85q-2 10 -2.5 31t-1.5 45q-19 -42 -56 -65t-97 -23q-32 0 -62.5 9t-54 30.5t-37.5 57t-14 89.5v333h87v-315q0 -25 4.5 -48t16.5 -41t32 -28.5t52 -10.5q70 0 99.5 41.5t29.5 137.5v264h88v-359zM319 734l111 -152h-86l-67 101
l-66 -101h-85l110 152h83z" />
    <glyph glyph-name="udieresis" unicode="&#xfc;" horiz-adv-x="557" 
d="M482 148v-40t0.5 -41.5t0.5 -38v-28.5h-85q-2 10 -2.5 31t-1.5 45q-19 -42 -56 -65t-97 -23q-32 0 -62.5 9t-54 30.5t-37.5 57t-14 89.5v333h87v-315q0 -25 4.5 -48t16.5 -41t32 -28.5t52 -10.5q70 0 99.5 41.5t29.5 137.5v264h88v-359zM148 625v109h77v-109h-77z
M331 625v109h76v-109h-76z" />
    <glyph glyph-name="yacute" unicode="&#xfd;" horiz-adv-x="481" 
d="M105 507q61 -182 95.5 -286t45.5 -143h1q6 22 16 56t26 85t39 121.5t54 166.5h88l-182 -530q-19 -56 -37 -92t-40 -57t-49.5 -29t-66.5 -8q-25 0 -55 3v76q10 -1 20.5 -1.5t21.5 -0.5q24 0 41 5.5t30.5 19t24.5 34.5t22 53l-190 527h95zM419 744l-154 -153h-82l128 153
h108z" />
    <glyph glyph-name="thorn" unicode="&#xfe;" horiz-adv-x="570" 
d="M75 -205v939h87v-307q21 38 59.5 64t104.5 26q44 0 81.5 -17.5t64.5 -50t42.5 -79t15.5 -105.5q0 -67 -17 -118.5t-47.5 -86.5t-71.5 -53t-88 -18q-60 0 -93 22t-51 52v-268h-87zM441 261q0 85 -37.5 133t-100.5 48q-38 0 -65.5 -14.5t-45 -40t-26 -59.5t-8.5 -74
q0 -38 6 -72.5t21.5 -60.5t42.5 -41.5t69 -15.5q68 0 106 53t38 144z" />
    <glyph glyph-name="ydieresis" unicode="&#xff;" horiz-adv-x="481" 
d="M105 507q61 -182 95.5 -286t45.5 -143h1q6 22 16 56t26 85t39 121.5t54 166.5h88l-182 -530q-19 -56 -37 -92t-40 -57t-49.5 -29t-66.5 -8q-25 0 -55 3v76q10 -1 20.5 -1.5t21.5 -0.5q24 0 41 5.5t30.5 19t24.5 34.5t22 53l-190 527h95zM110 625v109h77v-109h-77z
M293 625v109h76v-109h-76z" />
    <glyph glyph-name="OE" unicode="&#x152;" horiz-adv-x="1018" 
d="M966 615h-343v-210h325v-81h-325v-243h360l-11 -81h-419q-20 -2 -55.5 -5.5t-81.5 -3.5q-89 0 -157 27t-114 75t-69 113t-23 142q0 73 25 137.5t72.5 113t117 76.5t159.5 28q47 0 83.5 -2.5t50.5 -4.5h405v-81zM530 617q-9 3 -23 4.5t-28.5 2t-28.5 1t-24 0.5
q-61 0 -111.5 -17.5t-87 -52t-57 -86t-20.5 -118.5q0 -68 20 -120.5t56 -88.5t86 -54.5t110 -18.5q34 0 64.5 2.5t43.5 6.5v539z" />
    <glyph glyph-name="oe" unicode="&#x153;" horiz-adv-x="907" 
d="M647 -12q-68 0 -112.5 30.5t-69.5 76.5q-29 -48 -77 -77.5t-116 -29.5q-54 0 -97.5 20t-73.5 55t-46 84t-16 106q0 56 16 104.5t46.5 84.5t75 56.5t101.5 20.5q63 0 111.5 -28t77.5 -79q26 48 72.5 77.5t113.5 29.5q59 0 100 -22t67 -56.5t38 -76t12 -81.5v-23.5
t-2 -21.5h-357q0 -39 10 -71.5t28 -56t43.5 -36.5t57.5 -13q28 0 48.5 7t35 18.5t23.5 25.5t15 28h88q-8 -24 -23 -51t-40.5 -49.5t-62 -37t-87.5 -14.5zM274 446q-71 0 -108 -53t-37 -139q0 -42 10 -77.5t29 -61t46.5 -40t61.5 -14.5t61 14t46 39t28.5 60.5t9.5 78.5
t-9.5 78.5t-28.5 61t-46 39.5t-63 14zM781 299q-1 64 -34 107t-96 44q-33 0 -57 -11t-40.5 -31t-26.5 -48t-13 -61h267z" />
    <glyph glyph-name="Ydieresis" unicode="&#x178;" horiz-adv-x="591" 
d="M245 0v255q0 13 -5 19l-245 422h106q24 -42 53 -94t56.5 -102.5t51 -92.5t35.5 -65q11 22 34.5 64.5t52 92.5t58.5 102.5l54 94.5h99l-253 -424q-2 -3 -3 -6.5t-1 -11.5v-254h-93zM159 770v110h77v-110h-77zM355 770v110h76v-110h-76z" />
    <glyph glyph-name="uni02BC" unicode="&#x2bc;" horiz-adv-x="337" 
d="M100 470q10 32 18 68.5t14 72t9.5 67.5t4.5 56h91q-2 -31 -8 -67t-15 -72t-19.5 -68.5t-21.5 -56.5h-73z" />
    <glyph glyph-name="tilde" unicode="&#x2dc;" 
d="M45 605v23q0 54 22 75t59 21q21 0 40.5 -7.5t37 -17t33 -17t29.5 -7.5t21 8.5t7 33.5v10h61v-21q0 -57 -22.5 -79.5t-60.5 -22.5q-21 0 -39.5 8t-35.5 17t-32.5 17t-31.5 8q-13 0 -19.5 -7.5t-6.5 -25.5v-16h-62z" />
    <glyph glyph-name="endash" unicode="&#x2013;" horiz-adv-x="516" 
d="M458 295v-77h-400v77h400z" />
    <glyph glyph-name="emdash" unicode="&#x2014;" horiz-adv-x="851" 
d="M794 295v-77h-736v77h736z" />
    <glyph glyph-name="quoteleft" unicode="&#x2018;" horiz-adv-x="200" 
d="M173 734q-11 -32 -19 -68.5t-14 -72t-9 -67.5t-4 -56h-91q2 31 8 67.5t15 72t19.5 68t21.5 56.5h73z" />
    <glyph glyph-name="quoteright" unicode="&#x2019;" horiz-adv-x="200" 
d="M27 470q10 32 18 68.5t14 72t9.5 67.5t4.5 56h91q-2 -31 -8 -67t-15 -72t-19.5 -68.5t-21.5 -56.5h-73z" />
    <glyph glyph-name="quotedblleft" unicode="&#x201c;" horiz-adv-x="380" 
d="M344 726q-11 -33 -19 -69t-14 -70.5t-9 -66.5t-4 -58h-88q1 32 8 69.5t16.5 74t20 68t20.5 52.5h69zM170 726q-10 -33 -18 -69t-13.5 -71t-9 -67t-4.5 -57h-88q1 30 7.5 67t15.5 73t20 68.5t22 55.5h68z" />
    <glyph glyph-name="quotedblright" unicode="&#x201d;" horiz-adv-x="380" 
d="M37 470q10 33 18 69t14 70.5t9 66.5t4 58h88q-2 -32 -8.5 -69.5t-16 -74t-20 -68t-20.5 -52.5h-68zM210 470q10 33 18 69t14 71t9 67t4 57h89q-2 -30 -8.5 -67t-15.5 -73t-20 -69t-21 -55h-69z" />
    <glyph glyph-name="quotedblbase" unicode="&#x201e;" horiz-adv-x="354" 
d="M27 -130q10 33 18.5 68.5t14 70t8.5 67t4 58.5h89q-2 -32 -8.5 -70t-16 -74t-20.5 -68t-21 -52h-68zM200 -130q10 33 18 69t14 71t9.5 67t4.5 57h88q-2 -30 -8.5 -67t-15.5 -73.5t-20 -69t-21 -54.5h-69z" />
    <glyph glyph-name="bullet" unicode="&#x2022;" horiz-adv-x="374" 
d="M284 355v-201h-194v201h194z" />
    <glyph glyph-name="ellipsis" unicode="&#x2026;" horiz-adv-x="843" 
d="M69 0v148h92v-148h-92zM353 0v148h92v-148h-92zM635 0v148h92v-148h-92z" />
    <glyph glyph-name="guilsinglleft" unicode="&#x2039;" horiz-adv-x="369" 
d="M144 260l168 -196h-85l-170 196l170 193h84z" />
    <glyph glyph-name="guilsinglright" unicode="&#x203a;" horiz-adv-x="369" 
d="M225 258l-168 195h85l170 -195l-170 -194h-85z" />
    <glyph glyph-name="Euro" unicode="&#x20ac;" horiz-adv-x="540" 
d="M510 156q-19 -81 -71 -124t-129 -43q-99 0 -154 68.5t-68 187.5h-62v60h58v23v19.5t1 19.5h-59v60h65q18 118 76.5 180t147.5 62q48 0 83 -15t58.5 -38.5t36.5 -53t17 -58.5h-86q-12 42 -39.5 66.5t-72.5 24.5q-112 0 -134 -168h185v-60h-190q-1 -8 -1 -17v-19v-26h191
v-60h-186q10 -86 42.5 -133t92.5 -47q45 0 71.5 24.5t40.5 66.5h86z" />
    <glyph glyph-name="trademark" unicode="&#x2122;" horiz-adv-x="481" 
d="M451 459v74q0 48 1.5 79t3.5 48h-2l-70 -200h-43l-64 200h-2q2 -17 2.5 -47.5t0.5 -84.5v-69h-47v237h79l56 -165l60 165h74v-237h-49zM202 696v-45h-80v-192h-52v192h-81v45h213z" />
    <glyph glyph-name="dotlessi" horiz-adv-x="237" 
d="M75 507h88v-507h-88v507z" />
    <glyph glyph-name="zero.slash" horiz-adv-x="559" 
d="M282 670q65 0 108.5 -29t70 -76t37.5 -107.5t11 -123.5q0 -60 -10.5 -122t-36.5 -111.5t-70.5 -81t-112.5 -31.5q-66 0 -110 29t-70.5 77t-38 109t-11.5 126q0 64 11.5 125t39 109t72 77.5t110.5 29.5zM283 598q-44 0 -72 -21.5t-44 -58.5t-22.5 -86t-6.5 -103
q0 -41 3.5 -79.5t12.5 -71.5l215 382q-15 18 -36 28t-50 10zM280 60q43 0 70.5 23.5t43 62t21 87.5t5.5 100q0 45 -4.5 88.5t-15.5 79.5l-218 -389q17 -24 40.5 -38t57.5 -14z" />
    <glyph glyph-name="zero.slashtab" horiz-adv-x="547" 
d="M277 670q65 0 108.5 -29t70 -76t37.5 -107.5t11 -123.5q0 -60 -10.5 -122t-36.5 -111.5t-70.5 -81t-112.5 -31.5q-66 0 -110 29t-70.5 77t-38 109t-11.5 126q0 64 11.5 125t39 109t72 77.5t110.5 29.5zM278 598q-44 0 -72 -21.5t-44 -58.5t-22.5 -86t-6.5 -103
q0 -41 3.5 -79.5t12.5 -71.5l215 382q-15 18 -36 28t-50 10zM275 60q43 0 70.5 23.5t43 62t21 87.5t5.5 100q0 45 -4.5 88.5t-15.5 79.5l-218 -389q17 -24 40.5 -38t57.5 -14z" />
    <glyph glyph-name="zero.tab" horiz-adv-x="547" 
d="M277 670q66 0 110 -29t70 -76t36.5 -107.5t10.5 -123.5q0 -61 -10 -123t-36 -111.5t-70.5 -80.5t-113.5 -31q-68 0 -112 29.5t-70.5 77.5t-37 109t-10.5 125q0 63 11.5 124.5t38.5 109.5t71.5 77.5t111.5 29.5zM278 595q-43 0 -70.5 -21t-43 -57.5t-21.5 -85t-6 -102.5
q0 -47 5 -94.5t20 -85.5t42 -62t71 -24q43 0 70 23t42 61t20 86.5t5 99.5q0 48 -5 94.5t-20 84t-41 60.5t-68 23z" />
    <glyph glyph-name="one.tab" horiz-adv-x="547" 
d="M58 0v77h157v470q-12 -7 -29.5 -13t-37 -10.5t-39 -7.5t-34.5 -4v66q22 4 45.5 11t45 17.5t41 23.5t34.5 28h61v-581h150v-77h-394z" />
    <glyph glyph-name="two.tab" horiz-adv-x="547" 
d="M57 0v5q0 72 47.5 145.5t150.5 151.5q40 30 66 51.5t41 40.5t21 39.5t6 47.5q0 50 -27 82.5t-87 32.5t-90 -30.5t-41 -91.5h-86q4 42 20 78t43 62t65.5 41t88.5 15q55 0 94 -16.5t64 -42.5t36 -60t11 -68q0 -38 -8.5 -65.5t-28 -53t-50.5 -52.5t-77 -62q-69 -53 -106 -94
t-49 -79h345l-13 -77h-436z" />
    <glyph glyph-name="three.tab" horiz-adv-x="547" 
d="M63 501q4 30 17.5 60.5t38.5 54.5t62.5 39t90.5 15q51 0 88.5 -14.5t61.5 -38t36 -54.5t12 -64q0 -30 -8 -53t-20.5 -39.5t-28 -27t-30.5 -16.5v-2q22 -7 43 -20t37 -33.5t25.5 -48t9.5 -64.5q0 -39 -12.5 -76.5t-40 -66.5t-71 -46.5t-104.5 -17.5q-57 0 -97.5 16
t-67.5 42t-41.5 58.5t-18.5 65.5h87q5 -22 16 -41.5t28 -34.5t41.5 -24t56.5 -9q35 0 60.5 11t42 29t24 42t7.5 51q0 66 -38 97t-105 31h-47v72h39q66 0 95 25t29 77q0 45 -28.5 72.5t-83.5 27.5q-30 0 -50.5 -7.5t-34.5 -20t-22.5 -30t-13.5 -37.5h-85z" />
    <glyph glyph-name="four.tab" horiz-adv-x="547" 
d="M345 0v169h-309v80l299 409h94v-413h85l-9 -76h-76v-169h-84zM345 411q0 38 0.5 82.5t1.5 76.5q-10 -19 -36.5 -58.5t-59.5 -86.5t-67.5 -95t-61.5 -85h223v166z" />
    <glyph glyph-name="five.tab" horiz-adv-x="547" 
d="M466 582h-275q-2 -20 -6 -47l-8 -54t-8 -50.5t-7 -36.5q21 23 54 38t84 15q45 0 81.5 -15t62.5 -43.5t40 -69t14 -91.5q0 -48 -13 -91.5t-40.5 -76.5t-70.5 -52.5t-103 -19.5q-88 0 -147 46t-72 131h89q11 -45 43.5 -74.5t89.5 -29.5q68 0 101 44t33 117q0 32 -7 59.5
t-22 47.5t-39.5 31.5t-58.5 11.5q-59 0 -88.5 -23t-46.5 -63l-82 15q7 32 15.5 80.5t16 99.5t13.5 98.5t9 78.5h361z" />
    <glyph glyph-name="six.tab" horiz-adv-x="547" 
d="M400 515q-10 35 -35 59t-76 24q-42 0 -70 -18.5t-45.5 -51t-25.5 -77t-9 -96.5q10 18 24.5 34.5t35 29t47 20.5t60.5 8q48 0 85.5 -16.5t63.5 -46t39.5 -69.5t13.5 -87q0 -49 -14.5 -92.5t-42.5 -76.5t-69.5 -52t-95.5 -19q-68 0 -113.5 26t-72.5 71t-38 105.5t-11 129.5
q0 68 12 131.5t40.5 112t74.5 77.5t115 29q50 0 85.5 -14.5t58.5 -37.5t35 -50.5t15 -52.5h-87zM285 62q36 0 61 13.5t40.5 35.5t23 50.5t7.5 59.5q0 28 -6 55t-20.5 48.5t-39.5 35t-63 13.5q-62 0 -100.5 -38t-38.5 -113q0 -20 6 -47.5t21 -52.5t41.5 -42.5t67.5 -17.5z
" />
    <glyph glyph-name="seven.tab" horiz-adv-x="547" 
d="M490 658v-72q-43 -58 -83.5 -129.5t-74.5 -148.5t-59.5 -156t-37.5 -152h-91q11 70 37 150t61 158t75 149t80 124h-339v77h432z" />
    <glyph glyph-name="eight.tab" horiz-adv-x="547" 
d="M270 -12q-48 0 -89.5 14t-72 39.5t-48 62t-17.5 82.5q0 35 10.5 62.5t28 48.5t39 35.5t42.5 22.5q-44 21 -68 55.5t-24 83.5q0 38 13.5 70.5t39.5 56t65 36.5t90 13q46 0 83 -13t62.5 -36t39.5 -55t14 -70q0 -54 -25.5 -88t-65.5 -49q23 -8 44.5 -23t37.5 -36.5
t25.5 -49.5t9.5 -61q0 -47 -17.5 -84.5t-48.5 -63.5t-74 -39.5t-94 -13.5zM274 61q63 0 101.5 32.5t38.5 96.5q0 63 -37 95t-103 32q-72 0 -106 -36.5t-34 -90.5q0 -55 36.5 -92t103.5 -37zM276 597q-63 0 -90.5 -28.5t-27.5 -74.5q0 -21 7 -39.5t21.5 -32.5t37 -22t53.5 -8
q60 0 87 26.5t27 72.5q0 22 -7 41t-21 33.5t-35.5 23t-51.5 8.5z" />
    <glyph glyph-name="nine.tab" horiz-adv-x="547" 
d="M150 144q14 -40 41.5 -61t75.5 -21t76 28.5t42 68.5t18.5 84t5.5 75q-23 -42 -64 -60t-93 -18q-47 0 -84 15.5t-63.5 43.5t-40.5 66.5t-14 83.5t15 85.5t43.5 70.5t69.5 47.5t94 17.5q61 0 104 -23t70 -63.5t39 -96t12 -120.5t-9 -132t-34 -122t-71 -89.5t-119 -34.5
q-50 0 -85.5 13.5t-60 35t-38.5 49.5t-20 57h90zM270 596q-34 0 -58.5 -11t-40 -30.5t-23 -45.5t-7.5 -56q0 -64 33.5 -102t92.5 -38q69 0 100.5 35t31.5 101q0 15 -4 40t-17.5 48.5t-39 41t-68.5 17.5z" />
    <glyph glyph-name="zero.slashcap" horiz-adv-x="591" 
d="M298 706q69 0 115 -31t73.5 -81t39.5 -113.5t12 -127.5q0 -63 -10.5 -127.5t-38 -117.5t-74.5 -86.5t-120 -33.5q-70 0 -117 31t-75 82t-39.5 115.5t-11.5 131.5q0 65 12.5 129t41 115t75.5 82.5t117 31.5zM299 632q-45 0 -75 -23t-48 -62t-25.5 -90.5t-7.5 -108.5
q0 -46 5 -90.5t17 -82.5l227 412q-17 21 -40 33t-53 12zM295 62q45 0 74.5 25t47 65.5t24.5 93t7 106.5q0 46 -5 91.5t-19 83.5l-228 -414q17 -23 41.5 -37t57.5 -14z" />
    <glyph glyph-name="zero.cap" horiz-adv-x="591" 
d="M298 706q69 0 115 -31t73.5 -81t39.5 -113.5t12 -127.5q0 -63 -10.5 -127.5t-38 -117.5t-74.5 -86.5t-120 -33.5q-70 0 -117 31t-75 82t-39.5 115.5t-11.5 131.5q0 65 12.5 129t41 115t75.5 82.5t117 31.5zM299 630q-45 0 -74.5 -22.5t-47 -61.5t-24.5 -90t-7 -108
q0 -50 6.5 -100.5t23.5 -91t45.5 -66.5t73.5 -26t74 24.5t45.5 65t23 92.5t6.5 106q0 50 -6 100t-22 89.5t-44.5 64t-72.5 24.5z" />
    <glyph glyph-name="one.cap" horiz-adv-x="370" 
d="M182 0v582q-12 -9 -31 -18.5t-40 -17t-41.5 -13t-34.5 -6.5v70q24 6 48 16t46.5 23t42 28t34.5 32h68v-696h-92z" />
    <glyph glyph-name="two.cap" horiz-adv-x="555" 
d="M46 0v7q0 36 10 73.5t34 77t65 82t103 87.5q40 29 67.5 50t44 39.5t24 39t7.5 49.5q0 54 -32.5 89t-92.5 35q-65 0 -96 -34.5t-42 -94.5h-91q4 43 20 80t44.5 65t69.5 44t95 16q59 0 100.5 -17.5t67.5 -45.5t38 -63t12 -70q0 -40 -9 -70t-30 -56.5t-55 -53.5t-83 -61
q-41 -29 -70.5 -55.5t-49 -50.5t-30.5 -45.5t-16 -39.5h372l-13 -77h-464z" />
    <glyph glyph-name="three.cap" horiz-adv-x="582" 
d="M66 525q4 33 19 65.5t41.5 58t66 41.5t93.5 16q53 0 92.5 -14.5t66 -39.5t39.5 -57t13 -68q0 -32 -8 -55.5t-20.5 -40.5t-29.5 -28.5t-35 -18.5v-3q22 -8 44 -21t39.5 -34t28 -50.5t10.5 -69.5q0 -41 -13 -80t-42 -70t-75 -49.5t-111 -18.5q-59 0 -102.5 17t-72 45
t-44 63t-18.5 72h88q5 -24 16 -46.5t29.5 -39t45 -26.5t62.5 -10q38 0 65.5 11t45 29.5t26 44.5t8.5 56q0 67 -39.5 102t-118.5 35h-38v73h34q73 0 103.5 28.5t30.5 78.5q0 48 -30.5 79t-90.5 31q-32 0 -55 -8.5t-38.5 -23t-25 -33.5t-14.5 -41h-86z" />
    <glyph glyph-name="four.cap" horiz-adv-x="569" 
d="M367 0v184h-329v79l318 433h97v-437h91l-11 -75h-80v-184h-86zM367 437q0 20 -0.5 43.5t-0.5 46t0.5 43t2.5 35.5q-7 -13 -23 -37t-37 -54t-46 -64.5t-49.5 -68.5t-47.5 -65.5t-40 -56.5h241v178z" />
    <glyph glyph-name="five.cap" horiz-adv-x="576" 
d="M497 618h-303q-3 -26 -6.5 -55.5t-7.5 -57.5t-7 -52t-6 -40q20 24 54 42t95 18q48 0 87 -16.5t66.5 -47t43 -73t15.5 -94.5q0 -54 -14.5 -100.5t-44.5 -80.5t-76 -53.5t-108 -19.5q-94 0 -156.5 49.5t-75.5 140.5h90q6 -23 16.5 -43.5t27.5 -36.5t42 -25.5t59 -9.5
q40 0 68 12.5t46 35.5t26.5 54t8.5 69q0 31 -7.5 60.5t-24.5 52t-43.5 36t-65.5 13.5q-35 0 -59 -8t-40 -21t-26 -29.5t-18 -32.5l-84 16q5 25 11.5 69t13.5 96t13.5 107t10.5 103h391z" />
    <glyph glyph-name="six.cap" horiz-adv-x="580" 
d="M424 544q-11 39 -38 63.5t-82 25.5q-48 0 -79 -23t-49 -60.5t-25.5 -84t-8.5 -93.5q23 41 66 67t113 26q49 0 88.5 -16.5t67.5 -46.5t43 -72t15 -93q0 -49 -14 -94t-43.5 -79.5t-73.5 -55t-104 -20.5q-70 0 -117.5 25.5t-76.5 71.5t-41.5 110.5t-12.5 142.5
q0 61 11 126.5t39.5 119t78 88t125.5 34.5q53 0 90.5 -15t62 -38t37.5 -52t17 -57h-89zM300 63q35 0 61.5 12.5t44.5 35t27.5 53t9.5 66.5q0 30 -7.5 58.5t-24 51t-43 36t-65.5 13.5q-69 0 -109 -39t-40 -115q0 -24 6.5 -53.5t23 -56t44.5 -44.5t72 -18z" />
    <glyph glyph-name="seven.cap" horiz-adv-x="503" 
d="M475 696v-73q-45 -62 -86.5 -135t-76.5 -153.5t-61.5 -165t-41.5 -169.5h-99q15 84 43 170t64 167t78 153t85 128h-359v78h454z" />
    <glyph glyph-name="eight.cap" horiz-adv-x="583" 
d="M287 -12q-52 0 -96 15t-75.5 42.5t-49 66.5t-17.5 87q0 40 12 69.5t30 50.5t39 34.5t39 21.5q-40 20 -65 56.5t-25 90.5q0 40 15 73.5t43 58t68.5 38.5t91.5 14q47 0 85.5 -13.5t66 -37.5t42.5 -57.5t15 -73.5q0 -60 -27.5 -95t-66.5 -51q24 -8 46.5 -23.5t39 -37.5
t26.5 -50.5t10 -64.5q0 -52 -19 -92t-52 -67t-78 -41t-98 -14zM292 62q68 0 109.5 35.5t41.5 104.5q0 64 -39.5 99t-111.5 35q-41 0 -69.5 -10t-46.5 -27.5t-26.5 -42t-8.5 -53.5q0 -30 10.5 -56t30.5 -45t47.5 -29.5t62.5 -10.5zM293 632q-64 0 -95.5 -29t-31.5 -81
q0 -48 32 -79.5t97 -31.5q61 0 92 28.5t31 79.5t-32.5 82t-92.5 31z" />
    <glyph glyph-name="nine.cap" horiz-adv-x="572" 
d="M148 154q29 -93 126 -93q51 0 81 28t46 70.5t21 91.5t7 91q-25 -44 -67.5 -64t-99.5 -20q-45 0 -84 14.5t-68 42.5t-46 69t-17 93q0 48 15.5 90t45 72.5t72.5 48.5t97 18q124 0 183 -84.5t59 -237.5q0 -40 -3 -85.5t-12.5 -89.5t-26.5 -84t-45 -70.5t-67.5 -48.5
t-94.5 -18q-50 0 -86.5 12.5t-62.5 35t-41.5 53t-22.5 65.5h91zM278 633q-63 0 -101 -39.5t-38 -111.5q0 -70 38.5 -110t99.5 -40q69 0 104.5 34.5t35.5 105.5q0 27 -6.5 55.5t-22 52t-42.5 38.5t-68 15z" />
    <glyph glyph-name="zero.sups" horiz-adv-x="388" 
d="M196 831q78 0 118 -55.5t40 -146.5q0 -100 -41.5 -152.5t-119.5 -52.5q-38 0 -67.5 15t-49.5 41.5t-30.5 63.5t-10.5 82q0 46 11 84t32 65t50.5 41.5t67.5 14.5zM194 771q-39 0 -62 -33.5t-23 -111.5q0 -72 24 -107t62 -35q45 0 65.5 35.5t20.5 108.5q0 74 -22.5 108.5
t-64.5 34.5z" />
    <glyph glyph-name="four.sups" horiz-adv-x="368" 
d="M223 428v103h-198v55l181 237h84v-236h61l-6 -56h-55v-103h-67zM223 587v81v20.5t0.5 26.5t1 27t1.5 22q-6 -10 -21.5 -31.5t-35 -47t-39 -52t-34.5 -46.5h127z" />
    <glyph glyph-name="five.sups" horiz-adv-x="382" 
d="M320 765h-187q-3 -24 -8 -52t-8 -47q14 12 35 20.5t58 8.5q61 0 98 -35t37 -94q0 -62 -40.5 -102t-112.5 -40q-37 0 -65 10t-47 26.5t-29.5 37t-13.5 41.5h71q8 -24 27 -41t57 -17q39 0 59 22.5t20 58.5q0 32 -18.5 54.5t-60.5 22.5q-35 0 -53 -12t-28 -29l-64 11
q3 21 8 49.5t9.5 58.5t8.5 58.5t6 49.5h251z" />
    <glyph glyph-name="six.sups" horiz-adv-x="379" 
d="M269 728q-7 17 -22.5 32.5t-48.5 15.5q-26 0 -43 -10.5t-27.5 -28.5t-16 -41.5t-6.5 -48.5q14 20 40 34.5t69 14.5q63 0 98 -37t35 -94q0 -30 -11 -56t-31 -45t-47.5 -29.5t-60.5 -10.5q-36 0 -65.5 12t-51 37t-33.5 62t-12 88q0 38 9 75t28.5 66.5t51 47.5t76.5 18
q32 0 56.5 -9t41 -24t25.5 -33t12 -36h-66zM195 479q15 0 30 4t26 14t18 25.5t7 38.5q0 39 -21 60.5t-61 21.5q-38 0 -60.5 -20.5t-22.5 -50.5q0 -15 4.5 -31t14.5 -30t26 -23t39 -9z" />
    <glyph glyph-name="seven.sups" horiz-adv-x="344" 
d="M316 825v-54q-57 -69 -96.5 -156.5t-62.5 -185.5h-77q8 45 25 92t38.5 91.5t46.5 84t49 68.5h-210v60h287z" />
    <glyph glyph-name="eight.sups" horiz-adv-x="366" 
d="M181 424q-38 0 -66.5 10t-47 26t-28 37t-9.5 44q0 39 20.5 63t48.5 35q-25 13 -38.5 35t-13.5 48q0 22 8 42t25 35t43 23.5t63 8.5q35 0 60 -9.5t41.5 -24.5t24 -34t7.5 -38q0 -29 -14 -50t-40 -32q32 -13 51.5 -37t19.5 -62q0 -54 -43 -87t-112 -33zM183 476q43 0 62 19
t19 47q0 71 -82 71q-44 0 -62 -19.5t-18 -48.5t20 -49t61 -20zM184 779q-34 0 -51 -15t-17 -40q0 -59 69 -59q29 0 46.5 14.5t17.5 43.5q0 25 -15.5 40.5t-49.5 15.5z" />
    <glyph glyph-name="nine.sups" horiz-adv-x="371" 
d="M108 526q8 -20 23.5 -34t46.5 -14q46 0 66 38.5t22 97.5q-14 -19 -38.5 -31t-64.5 -12q-60 0 -96.5 34t-36.5 91q0 28 10 52.5t29.5 43t47.5 29t63 10.5q72 0 114 -47.5t42 -146.5q0 -40 -8 -78.5t-26.5 -68.5t-49 -48.5t-74.5 -18.5q-35 0 -60 9.5t-42 24.5t-26.5 33
t-12.5 36h71zM178 775q-30 0 -54 -17t-24 -60q0 -33 20.5 -54t60.5 -21q36 0 58 16t22 50q0 38 -20.5 62t-62.5 24z" />
    <glyph glyph-name="parenleft.sups" horiz-adv-x="219" 
d="M186 875q-16 -23 -31.5 -49t-27.5 -57.5t-19 -68.5t-7 -80q0 -42 7 -78t19 -67t27.5 -57.5t31.5 -49.5h-68q-13 16 -27 41t-26 57t-19.5 71t-7.5 83q0 46 7.5 84.5t19 70.5t25.5 57t28 43h68z" />
    <glyph glyph-name="parenright.sups" horiz-adv-x="219" 
d="M33 384q16 22 31.5 48.5t27.5 58t19 68t7 79.5q0 42 -7 78.5t-19 67t-27.5 57t-31.5 49.5h68q13 -16 27.5 -40.5t26.5 -57t19.5 -71.5t7.5 -83q0 -45 -7.5 -83.5t-19 -70.5t-26 -57t-28.5 -43h-68z" />
    <glyph glyph-name="period.sups" horiz-adv-x="150" 
d="M39 428v102h71v-102h-71z" />
    <glyph glyph-name="comma.sups" horiz-adv-x="144" 
d="M14 355q17 45 26 88.5t12 86.5h69q-2 -24 -6.5 -49t-10.5 -48.5t-13.5 -43.5t-16.5 -34h-60z" />
    <glyph glyph-name="dollar.sups" horiz-adv-x="385" 
d="M158 365v64q-57 7 -92.5 37t-43.5 78h72q8 -31 36.5 -47.5t63.5 -16.5q45 0 65.5 15.5t20.5 41.5q0 12 -4 22t-15 18t-30.5 14.5t-49.5 11.5q-84 16 -115 43.5t-31 70.5q0 39 29.5 71t93.5 39v47h62v-48q30 -4 52.5 -15.5t37 -26.5t22.5 -32t10 -33h-68q-2 7 -6.5 17
t-14.5 18.5t-26.5 14.5t-41.5 6q-45 0 -63 -15.5t-18 -34.5q0 -24 21.5 -35.5t77.5 -21.5q44 -9 73 -21.5t46 -28.5t23.5 -34.5t6.5 -37.5q0 -47 -32 -79t-100 -39v-63h-62z" />
    <glyph glyph-name="cent.sups" horiz-adv-x="387" 
d="M357 568q-11 -40 -39.5 -67.5t-79.5 -35.5v-62h-62v62q-63 8 -100 50t-37 106q0 69 39 110t98 50v52h62v-52q31 -5 52.5 -16.5t35.5 -26.5t21 -31.5t9 -29.5h-68q-7 23 -27.5 38.5t-56.5 15.5q-43 0 -69 -28t-26 -79q0 -46 26 -77t70 -31q62 0 84 52h68z" />
    <glyph glyph-name="hyphen.sups" horiz-adv-x="226" 
d="M195 656v-61h-164v61h164z" />
    <glyph glyph-name="zero.subs" horiz-adv-x="388" 
d="M196 231q78 0 118 -55.5t40 -146.5q0 -100 -41.5 -152.5t-119.5 -52.5q-38 0 -67.5 15t-49.5 41.5t-30.5 63.5t-10.5 82q0 46 11 84t32 65t50.5 41.5t67.5 14.5zM194 171q-39 0 -62 -33.5t-23 -111.5q0 -72 24 -107t62 -35q45 0 65.5 35.5t20.5 108.5q0 74 -22.5 108.5
t-64.5 34.5z" />
    <glyph glyph-name="one.subs" horiz-adv-x="249" 
d="M107 -172v314q-8 -5 -20 -8.5t-24 -6.5t-23 -4.5t-17 -1.5v55q35 6 61.5 21.5t45.5 33.5h49v-403h-72z" />
    <glyph glyph-name="two.subs" horiz-adv-x="362" 
d="M37 -171v5q0 53 30.5 98t100.5 88q25 15 40.5 26t24.5 20.5t12 19t3 22.5q0 29 -16.5 46.5t-50.5 17.5q-31 0 -51 -17.5t-26 -54.5h-69q6 60 45.5 95.5t103.5 35.5q39 0 65.5 -11.5t43 -29.5t23.5 -39t7 -40q0 -24 -6.5 -42t-20 -33t-33 -28t-45.5 -28q-33 -20 -61 -43.5
t-36 -48.5h218l-11 -59h-291z" />
    <glyph glyph-name="three.subs" horiz-adv-x="372" 
d="M147 69h33q36 0 51.5 14t15.5 35q0 22 -15 39t-53 17q-20 0 -33.5 -5.5t-22 -13.5t-13 -18.5t-7.5 -19.5h-65q1 13 8.5 32.5t23.5 37.5t43 30.5t69 12.5q69 0 102.5 -31.5t33.5 -76.5q0 -34 -18.5 -53t-38.5 -27q29 -8 51.5 -32t22.5 -63q0 -23 -8 -45t-26.5 -39
t-47.5 -28t-71 -11q-45 0 -74 13t-46 32t-24 39t-9 35h69q5 -26 27.5 -44.5t58.5 -18.5q38 0 57.5 18t19.5 47q0 33 -21 48.5t-56 15.5h-37v60z" />
    <glyph glyph-name="four.subs" horiz-adv-x="368" 
d="M223 -172v103h-198v55l181 237h84v-236h61l-6 -56h-55v-103h-67zM223 -13v81v20.5t0.5 26.5t1 27t1.5 22q-6 -10 -21.5 -31.5t-35 -47t-39 -52t-34.5 -46.5h127z" />
    <glyph glyph-name="five.subs" horiz-adv-x="382" 
d="M320 165h-187q-3 -24 -8 -52t-8 -47q14 12 35 20.5t58 8.5q61 0 98 -35t37 -94q0 -62 -40.5 -102t-112.5 -40q-37 0 -65 10t-47 26.5t-29.5 37t-13.5 41.5h71q8 -24 27 -41t57 -17q39 0 59 22.5t20 58.5q0 32 -18.5 54.5t-60.5 22.5q-35 0 -53 -12t-28 -29l-64 11
q3 21 8 49.5t9.5 58.5t8.5 58.5t6 49.5h251z" />
    <glyph glyph-name="six.subs" horiz-adv-x="379" 
d="M269 128q-7 17 -22.5 32.5t-48.5 15.5q-26 0 -43 -10.5t-27.5 -28.5t-16 -41.5t-6.5 -48.5q14 20 40 34.5t69 14.5q63 0 98 -37t35 -94q0 -30 -11 -56t-31 -45t-47.5 -29.5t-60.5 -10.5q-36 0 -65.5 12t-51 37t-33.5 62t-12 88q0 38 9 75t28.5 66.5t51 47.5t76.5 18
q32 0 56.5 -9t41 -24t25.5 -33t12 -36h-66zM195 -121q15 0 30 4t26 14t18 25.5t7 38.5q0 39 -21 60.5t-61 21.5q-38 0 -60.5 -20.5t-22.5 -50.5q0 -15 4.5 -31t14.5 -30t26 -23t39 -9z" />
    <glyph glyph-name="seven.subs" horiz-adv-x="344" 
d="M316 225v-54q-57 -69 -96.5 -156.5t-62.5 -185.5h-77q8 45 25 92t38.5 91.5t46.5 84t49 68.5h-210v60h287z" />
    <glyph glyph-name="eight.subs" horiz-adv-x="366" 
d="M181 -176q-38 0 -66.5 10t-47 26t-28 37t-9.5 44q0 39 20.5 63t48.5 35q-25 13 -38.5 35t-13.5 48q0 22 8 42t25 35t43 23.5t63 8.5q35 0 60 -9.5t41.5 -24.5t24 -34t7.5 -38q0 -29 -14 -50t-40 -32q32 -13 51.5 -37t19.5 -62q0 -54 -43 -87t-112 -33zM183 -124
q43 0 62 19t19 47q0 71 -82 71q-44 0 -62 -19.5t-18 -48.5t20 -49t61 -20zM184 179q-34 0 -51 -15t-17 -40q0 -59 69 -59q29 0 46.5 14.5t17.5 43.5q0 25 -15.5 40.5t-49.5 15.5z" />
    <glyph glyph-name="nine.subs" horiz-adv-x="371" 
d="M108 -74q8 -20 23.5 -34t46.5 -14q46 0 66 38.5t22 97.5q-14 -19 -38.5 -31t-64.5 -12q-60 0 -96.5 34t-36.5 91q0 28 10 52.5t29.5 43t47.5 29t63 10.5q72 0 114 -47.5t42 -146.5q0 -40 -8 -78.5t-26.5 -68.5t-49 -48.5t-74.5 -18.5q-35 0 -60 9.5t-42 24.5t-26.5 33
t-12.5 36h71zM178 175q-30 0 -54 -17t-24 -60q0 -33 20.5 -54t60.5 -21q36 0 58 16t22 50q0 38 -20.5 62t-62.5 24z" />
    <glyph glyph-name="parenleft.subs" horiz-adv-x="219" 
d="M186 275q-16 -23 -31.5 -49t-27.5 -57.5t-19 -68.5t-7 -80q0 -42 7 -78t19 -67t27.5 -57.5t31.5 -49.5h-68q-13 16 -27 41t-26 57t-19.5 71t-7.5 83q0 46 7.5 84.5t19 70.5t25.5 57t28 43h68z" />
    <glyph glyph-name="parenright.subs" horiz-adv-x="219" 
d="M33 -216q16 22 31.5 48.5t27.5 58t19 68t7 79.5q0 42 -7 78.5t-19 67t-27.5 57t-31.5 49.5h68q13 -16 27.5 -40.5t26.5 -57t19.5 -71.5t7.5 -83q0 -45 -7.5 -83.5t-19 -70.5t-26 -57t-28.5 -43h-68z" />
    <glyph glyph-name="period.subs" horiz-adv-x="150" 
d="M39 -172v102h71v-102h-71z" />
    <glyph glyph-name="comma.subs" horiz-adv-x="144" 
d="M14 -245q17 45 26 88.5t12 86.5h69q-2 -24 -6.5 -49t-10.5 -48.5t-13.5 -43.5t-16.5 -34h-60z" />
    <glyph glyph-name="dollar.subs" horiz-adv-x="385" 
d="M158 -235v64q-57 7 -92.5 37t-43.5 78h72q8 -31 36.5 -47.5t63.5 -16.5q45 0 65.5 15.5t20.5 41.5q0 12 -4 22t-15 18t-30.5 14.5t-49.5 11.5q-84 16 -115 43.5t-31 70.5q0 39 29.5 71t93.5 39v47h62v-48q30 -4 52.5 -15.5t37 -26.5t22.5 -32t10 -33h-68q-2 7 -6.5 17
t-14.5 18.5t-26.5 14.5t-41.5 6q-45 0 -63 -15.5t-18 -34.5q0 -24 21.5 -35.5t77.5 -21.5q44 -9 73 -21.5t46 -28.5t23.5 -34.5t6.5 -37.5q0 -47 -32 -79t-100 -39v-63h-62z" />
    <glyph glyph-name="cent.subs" horiz-adv-x="387" 
d="M357 -32q-11 -40 -39.5 -67.5t-79.5 -35.5v-62h-62v62q-63 8 -100 50t-37 106q0 69 39 110t98 50v52h62v-52q31 -5 52.5 -16.5t35.5 -26.5t21 -31.5t9 -29.5h-68q-7 23 -27.5 38.5t-56.5 15.5q-43 0 -69 -28t-26 -79q0 -46 26 -77t70 -31q62 0 84 52h68z" />
    <glyph glyph-name="hyphen.subs" horiz-adv-x="226" 
d="M195 56v-61h-164v61h164z" />
    <glyph glyph-name="zero.numr" horiz-adv-x="388" 
d="M196 664q78 0 118 -55.5t40 -146.5q0 -100 -41.5 -152.5t-119.5 -52.5q-38 0 -67.5 15t-49.5 41.5t-30.5 63.5t-10.5 82q0 46 11 84t32 65t50.5 41.5t67.5 14.5zM194 604q-39 0 -62 -33.5t-23 -111.5q0 -72 24 -107t62 -35q45 0 65.5 35.5t20.5 108.5q0 74 -22.5 108.5
t-64.5 34.5z" />
    <glyph glyph-name="one.numr" horiz-adv-x="249" 
d="M107 261v314q-8 -5 -20 -8.5t-24 -6.5t-23 -4.5t-17 -1.5v55q35 6 61.5 21.5t45.5 33.5h49v-403h-72z" />
    <glyph glyph-name="two.numr" horiz-adv-x="362" 
d="M37 262v5q0 53 30.5 98t100.5 88q25 15 40.5 26t24.5 20.5t12 19t3 22.5q0 29 -16.5 46.5t-50.5 17.5q-31 0 -51 -17.5t-26 -54.5h-69q6 60 45.5 95.5t103.5 35.5q39 0 65.5 -11.5t43 -29.5t23.5 -39t7 -40q0 -24 -6.5 -42t-20 -33t-33 -28t-45.5 -28q-33 -20 -61 -43.5
t-36 -48.5h218l-11 -59h-291z" />
    <glyph glyph-name="three.numr" horiz-adv-x="372" 
d="M147 502h33q36 0 51.5 14t15.5 35q0 22 -15 39t-53 17q-20 0 -33.5 -5.5t-22 -13.5t-13 -18.5t-7.5 -19.5h-65q1 13 8.5 32.5t23.5 37.5t43 30.5t69 12.5q69 0 102.5 -31.5t33.5 -76.5q0 -34 -18.5 -53t-38.5 -27q29 -8 51.5 -32t22.5 -63q0 -23 -8 -45t-26.5 -39
t-47.5 -28t-71 -11q-45 0 -74 13t-46 32t-24 39t-9 35h69q5 -26 27.5 -44.5t58.5 -18.5q38 0 57.5 18t19.5 47q0 33 -21 48.5t-56 15.5h-37v60z" />
    <glyph glyph-name="four.numr" horiz-adv-x="368" 
d="M223 261v103h-198v55l181 237h84v-236h61l-6 -56h-55v-103h-67zM223 420v81v20.5t0.5 26.5t1 27t1.5 22q-6 -10 -21.5 -31.5t-35 -47t-39 -52t-34.5 -46.5h127z" />
    <glyph glyph-name="five.numr" horiz-adv-x="382" 
d="M320 598h-187q-3 -24 -8 -52t-8 -47q14 12 35 20.5t58 8.5q61 0 98 -35t37 -94q0 -62 -40.5 -102t-112.5 -40q-37 0 -65 10t-47 26.5t-29.5 37t-13.5 41.5h71q8 -24 27 -41t57 -17q39 0 59 22.5t20 58.5q0 32 -18.5 54.5t-60.5 22.5q-35 0 -53 -12t-28 -29l-64 11
q3 21 8 49.5t9.5 58.5t8.5 58.5t6 49.5h251z" />
    <glyph glyph-name="six.numr" horiz-adv-x="379" 
d="M269 561q-7 17 -22.5 32.5t-48.5 15.5q-26 0 -43 -10.5t-27.5 -28.5t-16 -41.5t-6.5 -48.5q14 20 40 34.5t69 14.5q63 0 98 -37t35 -94q0 -30 -11 -56t-31 -45t-47.5 -29.5t-60.5 -10.5q-36 0 -65.5 12t-51 37t-33.5 62t-12 88q0 38 9 75t28.5 66.5t51 47.5t76.5 18
q32 0 56.5 -9t41 -24t25.5 -33t12 -36h-66zM195 312q15 0 30 4t26 14t18 25.5t7 38.5q0 39 -21 60.5t-61 21.5q-38 0 -60.5 -20.5t-22.5 -50.5q0 -15 4.5 -31t14.5 -30t26 -23t39 -9z" />
    <glyph glyph-name="seven.numr" horiz-adv-x="344" 
d="M316 658v-54q-57 -69 -96.5 -156.5t-62.5 -185.5h-77q8 45 25 92t38.5 91.5t46.5 84t49 68.5h-210v60h287z" />
    <glyph glyph-name="eight.numr" horiz-adv-x="366" 
d="M181 257q-38 0 -66.5 10t-47 26t-28 37t-9.5 44q0 39 20.5 63t48.5 35q-25 13 -38.5 35t-13.5 48q0 22 8 42t25 35t43 23.5t63 8.5q35 0 60 -9.5t41.5 -24.5t24 -34t7.5 -38q0 -29 -14 -50t-40 -32q32 -13 51.5 -37t19.5 -62q0 -54 -43 -87t-112 -33zM183 309q43 0 62 19
t19 47q0 71 -82 71q-44 0 -62 -19.5t-18 -48.5t20 -49t61 -20zM184 612q-34 0 -51 -15t-17 -40q0 -59 69 -59q29 0 46.5 14.5t17.5 43.5q0 25 -15.5 40.5t-49.5 15.5z" />
    <glyph glyph-name="nine.numr" horiz-adv-x="371" 
d="M108 359q8 -20 23.5 -34t46.5 -14q46 0 66 38.5t22 97.5q-14 -19 -38.5 -31t-64.5 -12q-60 0 -96.5 34t-36.5 91q0 28 10 52.5t29.5 43t47.5 29t63 10.5q72 0 114 -47.5t42 -146.5q0 -40 -8 -78.5t-26.5 -68.5t-49 -48.5t-74.5 -18.5q-35 0 -60 9.5t-42 24.5t-26.5 33
t-12.5 36h71zM178 608q-30 0 -54 -17t-24 -60q0 -33 20.5 -54t60.5 -21q36 0 58 16t22 50q0 38 -20.5 62t-62.5 24z" />
    <glyph glyph-name="parenleft.numr" horiz-adv-x="219" 
d="M186 708q-16 -23 -31.5 -49t-27.5 -57.5t-19 -68.5t-7 -80q0 -42 7 -78t19 -67t27.5 -57.5t31.5 -49.5h-68q-13 16 -27 41t-26 57t-19.5 71t-7.5 83q0 46 7.5 84.5t19 70.5t25.5 57t28 43h68z" />
    <glyph glyph-name="parenright.numr" horiz-adv-x="219" 
d="M33 217q16 22 31.5 48.5t27.5 58t19 68t7 79.5q0 42 -7 78.5t-19 67t-27.5 57t-31.5 49.5h68q13 -16 27.5 -40.5t26.5 -57t19.5 -71.5t7.5 -83q0 -45 -7.5 -83.5t-19 -70.5t-26 -57t-28.5 -43h-68z" />
    <glyph glyph-name="period.numr" horiz-adv-x="150" 
d="M39 261v102h71v-102h-71z" />
    <glyph glyph-name="comma.numr" horiz-adv-x="144" 
d="M14 188q17 45 26 88.5t12 86.5h69q-2 -24 -6.5 -49t-10.5 -48.5t-13.5 -43.5t-16.5 -34h-60z" />
    <glyph glyph-name="dollar.numr" horiz-adv-x="385" 
d="M158 198v64q-57 7 -92.5 37t-43.5 78h72q8 -31 36.5 -47.5t63.5 -16.5q45 0 65.5 15.5t20.5 41.5q0 12 -4 22t-15 18t-30.5 14.5t-49.5 11.5q-84 16 -115 43.5t-31 70.5q0 39 29.5 71t93.5 39v47h62v-48q30 -4 52.5 -15.5t37 -26.5t22.5 -32t10 -33h-68q-2 7 -6.5 17
t-14.5 18.5t-26.5 14.5t-41.5 6q-45 0 -63 -15.5t-18 -34.5q0 -24 21.5 -35.5t77.5 -21.5q44 -9 73 -21.5t46 -28.5t23.5 -34.5t6.5 -37.5q0 -47 -32 -79t-100 -39v-63h-62z" />
    <glyph glyph-name="cent.numr" horiz-adv-x="387" 
d="M357 401q-11 -40 -39.5 -67.5t-79.5 -35.5v-62h-62v62q-63 8 -100 50t-37 106q0 69 39 110t98 50v52h62v-52q31 -5 52.5 -16.5t35.5 -26.5t21 -31.5t9 -29.5h-68q-7 23 -27.5 38.5t-56.5 15.5q-43 0 -69 -28t-26 -79q0 -46 26 -77t70 -31q62 0 84 52h68z" />
    <glyph glyph-name="hyphen.numr" horiz-adv-x="226" 
d="M195 489v-61h-164v61h164z" />
    <glyph glyph-name="zero.dnom" horiz-adv-x="388" 
d="M196 402q78 0 118 -55.5t40 -146.5q0 -100 -41.5 -152.5t-119.5 -52.5q-38 0 -67.5 15t-49.5 41.5t-30.5 63.5t-10.5 82q0 46 11 84t32 65t50.5 41.5t67.5 14.5zM194 342q-39 0 -62 -33.5t-23 -111.5q0 -72 24 -107t62 -35q45 0 65.5 35.5t20.5 108.5q0 74 -22.5 108.5
t-64.5 34.5z" />
    <glyph glyph-name="one.dnom" horiz-adv-x="249" 
d="M107 -1v314q-8 -5 -20 -8.5t-24 -6.5t-23 -4.5t-17 -1.5v55q35 6 61.5 21.5t45.5 33.5h49v-403h-72z" />
    <glyph glyph-name="two.dnom" horiz-adv-x="362" 
d="M37 0v5q0 53 30.5 98t100.5 88q25 15 40.5 26t24.5 20.5t12 19t3 22.5q0 29 -16.5 46.5t-50.5 17.5q-31 0 -51 -17.5t-26 -54.5h-69q6 60 45.5 95.5t103.5 35.5q39 0 65.5 -11.5t43 -29.5t23.5 -39t7 -40q0 -24 -6.5 -42t-20 -33t-33 -28t-45.5 -28q-33 -20 -61 -43.5
t-36 -48.5h218l-11 -59h-291z" />
    <glyph glyph-name="three.dnom" horiz-adv-x="372" 
d="M147 240h33q36 0 51.5 14t15.5 35q0 22 -15 39t-53 17q-20 0 -33.5 -5.5t-22 -13.5t-13 -18.5t-7.5 -19.5h-65q1 13 8.5 32.5t23.5 37.5t43 30.5t69 12.5q69 0 102.5 -31.5t33.5 -76.5q0 -34 -18.5 -53t-38.5 -27q29 -8 51.5 -32t22.5 -63q0 -23 -8 -45t-26.5 -39
t-47.5 -28t-71 -11q-45 0 -74 13t-46 32t-24 39t-9 35h69q5 -26 27.5 -44.5t58.5 -18.5q38 0 57.5 18t19.5 47q0 33 -21 48.5t-56 15.5h-37v60z" />
    <glyph glyph-name="four.dnom" horiz-adv-x="368" 
d="M223 -1v103h-198v55l181 237h84v-236h61l-6 -56h-55v-103h-67zM223 158v81v20.5t0.5 26.5t1 27t1.5 22q-6 -10 -21.5 -31.5t-35 -47t-39 -52t-34.5 -46.5h127z" />
    <glyph glyph-name="five.dnom" horiz-adv-x="382" 
d="M320 336h-187q-3 -24 -8 -52t-8 -47q14 12 35 20.5t58 8.5q61 0 98 -35t37 -94q0 -62 -40.5 -102t-112.5 -40q-37 0 -65 10t-47 26.5t-29.5 37t-13.5 41.5h71q8 -24 27 -41t57 -17q39 0 59 22.5t20 58.5q0 32 -18.5 54.5t-60.5 22.5q-35 0 -53 -12t-28 -29l-64 11
q3 21 8 49.5t9.5 58.5t8.5 58.5t6 49.5h251z" />
    <glyph glyph-name="six.dnom" horiz-adv-x="379" 
d="M269 299q-7 17 -22.5 32.5t-48.5 15.5q-26 0 -43 -10.5t-27.5 -28.5t-16 -41.5t-6.5 -48.5q14 20 40 34.5t69 14.5q63 0 98 -37t35 -94q0 -30 -11 -56t-31 -45t-47.5 -29.5t-60.5 -10.5q-36 0 -65.5 12t-51 37t-33.5 62t-12 88q0 38 9 75t28.5 66.5t51 47.5t76.5 18
q32 0 56.5 -9t41 -24t25.5 -33t12 -36h-66zM195 50q15 0 30 4t26 14t18 25.5t7 38.5q0 39 -21 60.5t-61 21.5q-38 0 -60.5 -20.5t-22.5 -50.5q0 -15 4.5 -31t14.5 -30t26 -23t39 -9z" />
    <glyph glyph-name="seven.dnom" horiz-adv-x="344" 
d="M316 396v-54q-57 -69 -96.5 -156.5t-62.5 -185.5h-77q8 45 25 92t38.5 91.5t46.5 84t49 68.5h-210v60h287z" />
    <glyph glyph-name="eight.dnom" horiz-adv-x="366" 
d="M181 -5q-38 0 -66.5 10t-47 26t-28 37t-9.5 44q0 39 20.5 63t48.5 35q-25 13 -38.5 35t-13.5 48q0 22 8 42t25 35t43 23.5t63 8.5q35 0 60 -9.5t41.5 -24.5t24 -34t7.5 -38q0 -29 -14 -50t-40 -32q32 -13 51.5 -37t19.5 -62q0 -54 -43 -87t-112 -33zM183 47q43 0 62 19
t19 47q0 71 -82 71q-44 0 -62 -19.5t-18 -48.5t20 -49t61 -20zM184 350q-34 0 -51 -15t-17 -40q0 -59 69 -59q29 0 46.5 14.5t17.5 43.5q0 25 -15.5 40.5t-49.5 15.5z" />
    <glyph glyph-name="nine.dnom" horiz-adv-x="371" 
d="M108 97q8 -20 23.5 -34t46.5 -14q46 0 66 38.5t22 97.5q-14 -19 -38.5 -31t-64.5 -12q-60 0 -96.5 34t-36.5 91q0 28 10 52.5t29.5 43t47.5 29t63 10.5q72 0 114 -47.5t42 -146.5q0 -40 -8 -78.5t-26.5 -68.5t-49 -48.5t-74.5 -18.5q-35 0 -60 9.5t-42 24.5t-26.5 33
t-12.5 36h71zM178 346q-30 0 -54 -17t-24 -60q0 -33 20.5 -54t60.5 -21q36 0 58 16t22 50q0 38 -20.5 62t-62.5 24z" />
    <glyph glyph-name="parenleft.dnom" horiz-adv-x="219" 
d="M186 446q-16 -23 -31.5 -49t-27.5 -57.5t-19 -68.5t-7 -80q0 -42 7 -78t19 -67t27.5 -57.5t31.5 -49.5h-68q-13 16 -27 41t-26 57t-19.5 71t-7.5 83q0 46 7.5 84.5t19 70.5t25.5 57t28 43h68z" />
    <glyph glyph-name="parenright.dnom" horiz-adv-x="219" 
d="M33 -45q16 22 31.5 48.5t27.5 58t19 68t7 79.5q0 42 -7 78.5t-19 67t-27.5 57t-31.5 49.5h68q13 -16 27.5 -40.5t26.5 -57t19.5 -71.5t7.5 -83q0 -45 -7.5 -83.5t-19 -70.5t-26 -57t-28.5 -43h-68z" />
    <glyph glyph-name="period.dnom" horiz-adv-x="150" 
d="M39 -1v102h71v-102h-71z" />
    <glyph glyph-name="comma.dnom" horiz-adv-x="144" 
d="M14 -74q17 45 26 88.5t12 86.5h69q-2 -24 -6.5 -49t-10.5 -48.5t-13.5 -43.5t-16.5 -34h-60z" />
    <glyph glyph-name="dollar.dnom" horiz-adv-x="385" 
d="M158 -64v64q-57 7 -92.5 37t-43.5 78h72q8 -31 36.5 -47.5t63.5 -16.5q45 0 65.5 15.5t20.5 41.5q0 12 -4 22t-15 18t-30.5 14.5t-49.5 11.5q-84 16 -115 43.5t-31 70.5q0 39 29.5 71t93.5 39v47h62v-48q30 -4 52.5 -15.5t37 -26.5t22.5 -32t10 -33h-68q-2 7 -6.5 17
t-14.5 18.5t-26.5 14.5t-41.5 6q-45 0 -63 -15.5t-18 -34.5q0 -24 21.5 -35.5t77.5 -21.5q44 -9 73 -21.5t46 -28.5t23.5 -34.5t6.5 -37.5q0 -47 -32 -79t-100 -39v-63h-62z" />
    <glyph glyph-name="cent.dnom" horiz-adv-x="387" 
d="M357 139q-11 -40 -39.5 -67.5t-79.5 -35.5v-62h-62v62q-63 8 -100 50t-37 106q0 69 39 110t98 50v52h62v-52q31 -5 52.5 -16.5t35.5 -26.5t21 -31.5t9 -29.5h-68q-7 23 -27.5 38.5t-56.5 15.5q-43 0 -69 -28t-26 -79q0 -46 26 -77t70 -31q62 0 84 52h68z" />
    <glyph glyph-name="hyphen.dnom" horiz-adv-x="226" 
d="M195 227v-61h-164v61h164z" />
    <glyph glyph-name="a.sups" horiz-adv-x="352" 
d="M305 334v-38t1 -36h-65q-2 9 -2 23t-1 23q-16 -28 -42 -39t-60 -11q-57 0 -85.5 30.5t-28.5 72.5q0 56 40.5 82t109.5 26h64v26q0 22 -13 40.5t-52 18.5q-34 0 -48 -14t-18 -38h-67q2 19 9.5 37.5t23.5 32.5t41 23t62 9q40 0 65.5 -10t40 -26t20 -36.5t5.5 -40.5v-155z
M238 419h-61q-85 0 -85 -53q0 -23 15 -38.5t49 -15.5q43 0 62.5 27t19.5 71v9z" />
    <glyph glyph-name="b.sups" horiz-adv-x="384" 
d="M46 742h68v-194q11 22 36.5 38t69.5 16q26 0 50.5 -10.5t43.5 -31t30.5 -51t11.5 -71.5q0 -48 -12.5 -82.5t-33 -56t-47 -32t-53.5 -10.5q-40 0 -62 14t-34 33v-21.5t-1 -20.5h-68q0 10 0.5 26t0.5 34.5v37.5v36v346zM286 436q0 54 -23.5 81.5t-61.5 27.5
q-46 0 -67.5 -28t-21.5 -88q0 -52 18.5 -83.5t65.5 -31.5q46 0 68 32.5t22 89.5z" />
    <glyph glyph-name="c.sups" horiz-adv-x="343" 
d="M324 367q-12 -52 -47 -81.5t-95 -29.5q-37 0 -66 12.5t-48.5 35.5t-30 54t-10.5 69q0 40 11.5 72t32 55t49 35.5t63.5 12.5t61 -10.5t43 -27.5t26.5 -37.5t11.5 -39.5h-68q-7 28 -25 44.5t-50 16.5q-38 0 -61.5 -29t-23.5 -89q0 -24 5 -45.5t16 -38t27.5 -26.5t40.5 -10
q27 0 45 12.5t29 44.5h64z" />
    <glyph glyph-name="d.sups" horiz-adv-x="389" 
d="M339 742v-391q0 -25 0.5 -48.5t0.5 -40.5h-63q-1 3 -1.5 10t-0.5 14.5v14.5v11q-13 -25 -39 -40.5t-68 -15.5q-29 0 -54.5 11t-44.5 32t-30.5 52.5t-11.5 73.5q0 43 12.5 76t33 55.5t48 34t57.5 11.5q42 0 64 -12t30 -26v178h67zM97 427q0 -54 24.5 -84t63.5 -30
q19 0 35.5 5.5t28.5 19t18.5 36.5t6.5 58t-6.5 57t-18 34.5t-27.5 17t-34 4.5q-42 0 -66.5 -30.5t-24.5 -87.5z" />
    <glyph glyph-name="e.sups" horiz-adv-x="355" 
d="M96 417q0 -49 23.5 -77.5t65.5 -28.5q32 0 50.5 12t29.5 35h65q-13 -44 -48.5 -73t-98.5 -29q-42 0 -72 14.5t-48.5 38.5t-27 54.5t-8.5 62.5q0 37 10.5 69t30.5 56t49 38t67 14q42 0 70 -14.5t45.5 -37t25 -50.5t7.5 -54v-16t-2 -14h-234zM264 462q0 39 -20 64t-61 25
q-38 0 -59.5 -23.5t-26.5 -65.5h167z" />
    <glyph glyph-name="f.sups" horiz-adv-x="178" 
d="M52 262v279h-50v54h50v34q0 52 25 86t79 34q14 0 21.5 -1t15.5 -3v-56q-12 3 -29 3q-24 0 -34.5 -14t-10.5 -46v-37h66v-54h-66v-279h-67z" />
    <glyph glyph-name="g.sups" horiz-adv-x="387" 
d="M336 294q0 -38 -8 -70t-27 -55t-50 -36t-77 -13q-38 0 -64 9.5t-43 25.5t-25.5 35t-11.5 39h69q6 -23 24.5 -39t53.5 -16q48 0 69.5 27t21.5 85v29q-27 -50 -101 -50q-30 0 -55 11.5t-44 32.5t-29.5 51t-10.5 68q0 37 11 68.5t30.5 54.5t46 36t57.5 13q29 1 58 -9t42 -36
q0 12 0.5 22.5t1.5 16.5h63q-1 -14 -1.5 -37.5t-0.5 -57.5v-205zM98 431q0 -53 24 -81t63 -28q41 0 63 26t22 88q0 33 -6.5 54t-18 33t-27 16.5t-34.5 4.5q-41 0 -63.5 -31t-22.5 -82z" />
    <glyph glyph-name="h.sups" horiz-adv-x="383" 
d="M46 742h68v-193q15 23 40 38t67 15q20 0 40.5 -6.5t37 -21.5t27 -40t10.5 -63v-209h-67v195q0 37 -14 62t-57 25q-39 0 -61.5 -26.5t-22.5 -76.5v-179h-68v480z" />
    <glyph glyph-name="i.sups" horiz-adv-x="161" 
d="M46 262v333h68v-333h-68zM46 669v73h68v-73h-68z" />
    <glyph glyph-name="j.sups" horiz-adv-x="164" 
d="M-3 178h3q31 0 41 19t10 55v343h67v-336q0 -32 -5 -57.5t-18 -43.5t-34 -28t-53 -10h-11v58zM50 669v73h68v-73h-68z" />
    <glyph glyph-name="k.sups" horiz-adv-x="347" 
d="M113 441q11 13 29 32.5t38.5 41t40 42.5t34.5 38h78q-32 -33 -62.5 -65t-61.5 -64l137 -204h-79l-106 165q-9 -9 -24 -23.5t-24 -22.5v-119h-67v480h67v-301z" />
    <glyph glyph-name="l.sups" horiz-adv-x="160" 
d="M46 262v480h68v-480h-68z" />
    <glyph glyph-name="m.sups" horiz-adv-x="579" 
d="M467 262v202q0 14 -3 28.5t-10.5 26t-20 18.5t-31.5 7q-78 0 -78 -97v-185h-69v208q0 14 -3 27.5t-10.5 24t-19.5 16.5t-31 6q-39 0 -58 -27.5t-19 -73.5v-181h-68v227q0 46 -0.5 68t-0.5 38h66q1 -4 2 -19t1 -30q11 22 36.5 39t64.5 17q37 0 60.5 -15.5t34.5 -43.5
q14 22 39.5 40.5t69.5 18.5q22 0 42.5 -6.5t36.5 -21.5t25.5 -39.5t9.5 -60.5v-212h-66z" />
    <glyph glyph-name="n.sups" horiz-adv-x="383" 
d="M46 488v68t-1 39h65q1 -8 2 -23.5t1 -27.5q13 23 39 40.5t68 17.5q19 0 40 -5.5t38 -20t28 -40t11 -64.5v-210h-67v196q0 36 -15.5 60.5t-55.5 24.5q-85 0 -85 -101v-180h-68v226z" />
    <glyph glyph-name="o.sups" horiz-adv-x="377" 
d="M191 602q74 0 116.5 -47t42.5 -126q0 -43 -12.5 -75.5t-34.5 -54t-52 -32.5t-65 -11t-64.5 12t-50.5 34.5t-32.5 54.5t-11.5 71q0 41 12.5 73t34.5 54.5t52 34.5t65 12zM188 548q-44 0 -67.5 -31t-23.5 -88q0 -54 24 -86.5t67 -32.5q45 0 68.5 29.5t23.5 89.5
q-1 55 -23.5 87t-68.5 32z" />
    <glyph glyph-name="p.sups" horiz-adv-x="383" 
d="M46 131v369q0 34 -0.5 56.5t-1.5 38.5h66q0 -5 1 -21t1 -30q15 26 40.5 42t67.5 16q27 0 51.5 -11t43.5 -32t30 -52t11 -71q0 -46 -12.5 -80t-33.5 -56t-48 -32.5t-55 -10.5q-38 0 -59.5 13.5t-33.5 31.5v-171h-68zM286 434q0 57 -24 83.5t-63 26.5q-49 0 -68 -29.5
t-19 -85.5q0 -49 18 -82t66 -33q90 0 90 120z" />
    <glyph glyph-name="q.sups" horiz-adv-x="385" 
d="M271 306q-29 -50 -105 -50q-27 0 -52 11t-44.5 32t-31 53t-11.5 74q0 44 13.5 77t35 55t48.5 33t54 11q43 0 66 -15.5t31 -31.5q-1 6 0 19t2 21h63q-1 -17 -1.5 -50t-0.5 -84v-330h-67v175zM97 428q0 -54 23.5 -84.5t64.5 -30.5q18 0 34 5.5t28 19t18.5 36t6.5 56.5
q0 35 -5.5 57t-16.5 35t-26.5 17.5t-35.5 4.5q-42 0 -66.5 -30t-24.5 -86z" />
    <glyph glyph-name="r.sups" horiz-adv-x="241" 
d="M46 483q0 39 -0.5 70t-0.5 42h65q1 -7 1.5 -24t0.5 -39q20 35 50.5 53t66.5 17v-69q-57 -1 -86 -29.5t-29 -91.5v-150h-68v221z" />
    <glyph glyph-name="s.sups" horiz-adv-x="318" 
d="M89 361q7 -26 26 -39.5t45 -13.5q65 0 65 43q0 23 -17.5 34t-60.5 22q-35 9 -57 19.5t-34 23.5t-16.5 27.5t-4.5 30.5q0 38 30.5 66.5t90.5 28.5q63 0 94 -30t34 -69h-60q-4 17 -19 33t-50 16q-29 0 -42 -11t-13 -28q0 -9 2.5 -15.5t10 -12.5t20.5 -11t35 -10
q36 -9 60 -19.5t38.5 -23.5t20 -29.5t5.5 -35.5q0 -45 -34.5 -73t-97.5 -28q-60 0 -95.5 29.5t-40.5 75.5h65z" />
    <glyph glyph-name="t.sups" horiz-adv-x="198" 
d="M52 595v95h67v-95h71v-54h-71v-184q0 -23 8 -33t31 -10q6 0 14 0.5t16 2.5v-53q-11 -5 -26 -6t-26 -1q-44 0 -64 20t-20 68v196h-56v54h56z" />
    <glyph glyph-name="u.sups" horiz-adv-x="380" 
d="M333 360q0 -32 0.5 -58.5t1.5 -39.5h-63q-1 3 -2 9.5t-1.5 15t-0.5 16v12.5q-15 -27 -41 -42.5t-66 -15.5q-50 0 -82.5 29.5t-32.5 97.5v211h68v-197q0 -17 3 -31.5t10.5 -26t20.5 -18t33 -6.5q16 0 31 5.5t27 18t19 31.5t7 46v178h68v-235z" />
    <glyph glyph-name="v.sups" horiz-adv-x="341" 
d="M83 595q34 -100 57 -172.5t31 -106.5h1q5 20 18 58.5t27 80.5t27.5 81t20.5 59h69l-122 -333h-84l-119 333h74z" />
    <glyph glyph-name="w.sups" horiz-adv-x="518" 
d="M84 595q16 -63 28 -107.5t19.5 -75t12 -50l7.5 -32.5h1q3 14 7 30.5t12.5 45t21.5 73.5t34 116h68q20 -70 33 -115t21 -73.5t12 -45.5t6 -31h1q2 12 6 28.5t11.5 45.5t20 74.5t32.5 116.5h70l-104 -333h-74q-11 43 -22 82.5t-21 73t-17.5 59t-11.5 41.5h-1
q-4 -17 -10.5 -40.5t-15.5 -54.5t-21.5 -70.5t-27.5 -90.5h-75l-97 333h74z" />
    <glyph glyph-name="x.sups" horiz-adv-x="300" 
d="M75 595q32 -50 51 -78t27 -42h1q10 16 29.5 47t47.5 73h75l-116 -160l118 -173h-79q-32 51 -52 81.5t-29 46.5h-1q-9 -16 -27.5 -45.5t-52.5 -82.5h-75l118 168l-116 165h81z" />
    <glyph glyph-name="y.sups" horiz-adv-x="335" 
d="M81 595q22 -59 38.5 -103.5t28 -76t17.5 -51t9 -29.5h1q8 28 30 93.5t56 166.5h72l-128 -345q-14 -38 -28.5 -62.5t-31 -38.5t-36 -19.5t-41.5 -5.5h-18t-18 1v61q7 -1 15.5 -1h11.5q26 0 45 16.5t36 61.5l-136 332h77z" />
    <glyph glyph-name="z.sups" horiz-adv-x="302" 
d="M16 312q7 9 30 36t51 61t57 69t50 60h-180v57h263v-47q-6 -8 -30 -37.5t-54 -66t-59.5 -71.5t-46.5 -54h198l-10 -57h-269v50z" />
    <glyph glyph-name="egrave.sups" horiz-adv-x="355" 
d="M145 737l82 -98h-66l-102 98h86zM96 417q0 -49 23.5 -77.5t65.5 -28.5q32 0 50.5 12t29.5 35h65q-13 -44 -48.5 -73t-98.5 -29q-42 0 -72 14.5t-48.5 38.5t-27 54.5t-8.5 62.5q0 37 10.5 69t30.5 56t49 38t67 14q42 0 70 -14.5t45.5 -37t25 -50.5t7.5 -54v-16t-2 -14
h-234zM264 462q0 39 -20 64t-61 25q-38 0 -59.5 -23.5t-26.5 -65.5h167z" />
    <glyph glyph-name="eacute.sups" horiz-adv-x="355" 
d="M314 735l-108 -96h-68l90 96h86zM96 417q0 -49 23.5 -77.5t65.5 -28.5q32 0 50.5 12t29.5 35h65q-13 -44 -48.5 -73t-98.5 -29q-42 0 -72 14.5t-48.5 38.5t-27 54.5t-8.5 62.5q0 37 10.5 69t30.5 56t49 38t67 14q42 0 70 -14.5t45.5 -37t25 -50.5t7.5 -54v-16t-2 -14
h-234zM264 462q0 39 -20 64t-61 25q-38 0 -59.5 -23.5t-26.5 -65.5h167z" />
    <glyph glyph-name="currency.cap" horiz-adv-x="545" 
d="M271 567q69 0 120 -39l68 71l50 -53l-69 -72q14 -24 21.5 -53t7.5 -63q0 -68 -30 -119l70 -72l-50 -54l-68 70q-51 -39 -122 -39q-68 0 -119 39l-66 -70l-51 54l69 70q-31 51 -31 119q0 67 32 119l-70 71l51 53l68 -71q50 38 119 39zM270 497q-61 0 -92.5 -40t-31.5 -100
q0 -38 10.5 -65t27.5 -45t39.5 -26.5t46.5 -8.5q26 0 48.5 8.5t39 26t26 45t9.5 65.5q0 60 -30 100t-93 40z" />
    <glyph glyph-name="dollar.cap" horiz-adv-x="550" 
d="M133 528q0 -21 5.5 -37.5t18 -29.5t32.5 -23.5t50 -20.5v214q-29 -2 -49 -12t-33 -24t-18.5 -31.5t-5.5 -35.5zM414 179q0 45 -25 74.5t-92 52.5v-243q57 6 87 35t30 81zM239 -91v84q-48 4 -85.5 20.5t-64 42t-42 58.5t-20.5 70h91q11 -52 43.5 -81.5t77.5 -37.5v258
q-53 16 -90.5 33.5t-61 40.5t-34.5 52.5t-11 68.5q0 40 14.5 72.5t41 56.5t62.5 38.5t79 17.5v74h58v-75q53 -5 89 -24t58.5 -43.5t33 -51.5t12.5 -49h-92q-7 31 -29 58.5t-72 36.5v-229q61 -18 101.5 -40.5t64.5 -48.5t33.5 -56.5t9.5 -65.5q0 -89 -56 -139t-153 -57v-84
h-58z" />
    <glyph glyph-name="sterling.cap" horiz-adv-x="544" 
d="M41 0v71q48 32 68 89t20 126v14.5t-1 14.5h-102v68h99q-2 23 -3 49t-1 56q0 101 50 159.5t147 58.5q51 0 87 -16t59 -40.5t34 -55t14 -58.5h-88q-8 45 -34.5 69.5t-72.5 24.5q-59 0 -83 -36t-24 -102q0 -31 1 -57t3 -52h157v-68h-155v-27q0 -72 -16.5 -123.5t-48.5 -86.5
h377l-13 -78h-474z" />
    <glyph glyph-name="yen.cap" horiz-adv-x="508" 
d="M298 172v-172h-89v172h-138v62h138v76h-138v62h124l-192 324h100q44 -78 72 -127.5t44.5 -80t24 -46.5t12.5 -26h1q4 10 13 26.5t26.5 47.5t45.5 80.5t72 125.5h94l-196 -324h125v-62h-139v-76h139v-62h-139z" />
    <glyph glyph-name="Euro.cap" horiz-adv-x="569" 
d="M536 159q-20 -86 -73.5 -128.5t-134.5 -42.5q-106 0 -164.5 70.5t-72.5 200.5h-65v61h61v27v21t1 20h-62v62h68q19 129 81.5 192.5t155.5 63.5q49 0 86 -15t62 -39t39 -54t18 -60h-87q-12 45 -43 69.5t-79 24.5q-60 0 -95.5 -43.5t-47.5 -138.5h198v-62h-202
q-1 -9 -1 -18.5v-19.5v-30h203v-61h-199q11 -96 46.5 -145.5t101.5 -49.5q47 0 75.5 24.5t42.5 70.5h87z" />
    <glyph glyph-name="cent.cap" horiz-adv-x="562" 
d="M145 348q0 -31 6.5 -62.5t21.5 -57.5t38 -45t56 -25v378q-32 -5 -55 -21t-38 -41t-22 -57t-7 -69zM522 250q-14 -69 -64 -113.5t-134 -51.5v-92h-57v92q-51 5 -90.5 27t-67 56.5t-42 79.5t-14.5 96t13.5 96.5t40.5 81t67 58t93 28.5v76h57v-76q51 -4 87.5 -22t60 -43
t35.5 -53.5t15 -54.5h-88q-5 16 -12.5 32.5t-20 30.5t-31.5 24t-46 14v-379q45 5 71 29.5t40 63.5h87z" />
    <glyph glyph-name="at.cap" horiz-adv-x="935" 
d="M698 -59q-37 -26 -96 -44t-149 -18q-85 0 -156.5 28t-123 80t-80.5 126.5t-29 166.5q0 94 30.5 175t87 140.5t137 93t179.5 33.5q76 0 144.5 -23t119.5 -67t81 -109t30 -150q0 -67 -16.5 -121t-46.5 -91.5t-71 -57.5t-89 -20q-43 0 -70.5 18t-29.5 60q-26 -37 -58.5 -57
t-83.5 -20q-61 0 -101.5 43.5t-40.5 130.5q0 57 16 106.5t44 85.5t65.5 57t80.5 21q30 0 51 -7.5t35 -18.5t22 -24.5t11 -26.5l17 67h79l-60 -281q-11 -49 0.5 -67t38.5 -18q28 0 52.5 15.5t41.5 44t27 68.5t10 89q0 66 -21.5 118.5t-61.5 90t-95.5 57.5t-123.5 20
q-80 0 -145 -27.5t-111 -77t-71 -118.5t-25 -153q0 -70 22 -130.5t63 -104.5t99 -69.5t130 -25.5q63 0 118 12.5t104 41.5zM481 461q-30 0 -54.5 -16.5t-41 -44.5t-25.5 -63.5t-9 -73.5q0 -54 20.5 -82t57.5 -28q45 0 78 33.5t52 116.5q35 158 -78 158z" />
    <glyph glyph-name="emdash.cap" horiz-adv-x="851" 
d="M794 395v-77h-736v77h736z" />
    <glyph glyph-name="endash.cap" horiz-adv-x="516" 
d="M458 395v-77h-400v77h400z" />
    <glyph glyph-name="hyphen.cap" horiz-adv-x="378" 
d="M320 396v-80h-262v80h262z" />
    <glyph glyph-name="uni00AD.cap" horiz-adv-x="378" 
d="M320 396v-80h-262v80h262z" />
    <glyph glyph-name="exclamdown.cap" horiz-adv-x="247" 
d="M143 462l12 -339v-122h-95v122l11 339h72zM152 697v-138h-87v138h87z" />
    <glyph glyph-name="questiondown.cap" horiz-adv-x="446" 
d="M22 105q0 26 4.5 49t15.5 45t29.5 44t45.5 47q37 34 52 62t15 64v8h90v-16q0 -20 -4 -39t-14.5 -39.5t-29 -43t-47.5 -48.5q-22 -20 -36 -37.5t-21.5 -33.5t-10 -31t-2.5 -30q0 -19 6.5 -37.5t20.5 -33.5t34.5 -24.5t49.5 -9.5q54 0 85.5 27.5t39.5 90.5h79
q-1 -29 -11 -62t-33.5 -61.5t-63.5 -47.5t-102 -19q-50 0 -86 15t-59.5 40t-35 56.5t-11.5 64.5zM274 635v-138h-90v138h90z" />
    <glyph glyph-name="guillemotleft.cap" horiz-adv-x="546" 
d="M143 353l151 -196h-83l-154 196l154 193h83zM336 353l153 -196h-85l-153 196l153 193h85z" />
    <glyph glyph-name="guillemotright.cap" horiz-adv-x="546" 
d="M403 357l-151 195h84l153 -195l-153 -194h-83zM210 357l-153 195h85l153 -195l-153 -194h-85z" />
    <glyph glyph-name="guilsinglleft.cap" horiz-adv-x="369" 
d="M144 353l168 -196h-85l-170 196l170 193h84z" />
    <glyph glyph-name="guilsinglright.cap" horiz-adv-x="369" 
d="M225 351l-168 195h85l170 -195l-170 -194h-85z" />
    <glyph glyph-name="parenleft.cap" horiz-adv-x="337" 
d="M298 791q-33 -43 -61.5 -92t-50 -105t-34 -118.5t-12.5 -131.5q0 -128 41 -243.5t117 -215.5h-89q-29 38 -56 86t-48 105.5t-34 125t-13 143.5q0 75 13 140t34.5 121t48.5 102.5t55 82.5h89z" />
    <glyph glyph-name="parenright.cap" horiz-adv-x="337" 
d="M39 -115q33 43 61.5 92t50 105t34 118.5t12.5 131.5q0 128 -41 243.5t-117 215.5h90q28 -38 55 -86t48 -106t34 -125t13 -143q0 -75 -13 -140t-34.5 -121t-48.5 -102.5t-54 -82.5h-90z" />
    <glyph glyph-name="braceleft.cap" horiz-adv-x="370" 
d="M27 375q36 0 57.5 8t33.5 23t15.5 35.5t3.5 45.5v130q0 44 13 76.5t36 54.5t54.5 32.5t69.5 10.5h21v-67h-16q-51 0 -73.5 -28.5t-22.5 -82.5v-124q0 -62 -23 -100.5t-74 -48.5q52 -12 74.5 -48.5t22.5 -102.5v-124q0 -57 26.5 -85.5t71.5 -28.5h14v-67h-21
q-33 0 -64 9.5t-55.5 30t-39 53.5t-14.5 81v132q0 24 -3.5 44.5t-14.5 35.5t-33 23.5t-59 8.5v73z" />
    <glyph glyph-name="braceright.cap" horiz-adv-x="370" 
d="M331 300q-36 0 -57.5 -8t-33.5 -23t-15.5 -35.5t-3.5 -45.5v-130q0 -44 -13 -76.5t-36 -54.5t-54.5 -32.5t-69.5 -10.5h-21v67h16q51 0 73.5 28.5t22.5 82.5v124q0 62 23 100.5t74 48.5q-52 12 -74.5 48.5t-22.5 102.5v124q0 57 -26.5 85.5t-71.5 28.5h-14v67h21
q33 0 64 -9.5t55.5 -30t39 -53.5t14.5 -81v-132q0 -24 3.5 -44.5t14.5 -35.5t33 -23.5t59 -8.5v-73z" />
    <glyph glyph-name="bracketleft.cap" horiz-adv-x="342" 
d="M86 -115v906h217v-70h-139v-765h139v-71h-217z" />
    <glyph glyph-name="bracketright.cap" horiz-adv-x="342" 
d="M256 791v-906h-217v70h139v765h-139v71h217z" />
    <glyph glyph-name="bullet.cap" horiz-adv-x="374" 
d="M284 451v-201h-194v201h194z" />
    <glyph glyph-name="periodcentered.cap" horiz-adv-x="203" 
d="M55 288v148h92v-148h-92z" />
    <glyph glyph-name="fraction" horiz-adv-x="186" 
d="M-156 0l431 658h70l-430 -658h-71z" />
    <glyph glyph-name="slash.frac" horiz-adv-x="186" 
d="M-156 0l431 658h70l-430 -658h-71z" />
    <glyph glyph-name="percent.alt" horiz-adv-x="522" 
d="M123 399q-45 0 -71.5 34t-26.5 85q0 50 26.5 84t71.5 34q25 0 44 -9t31.5 -25t19 -37.5t6.5 -46.5q0 -51 -26 -85t-75 -34zM123 591q-22 0 -36 -18t-14 -55q0 -32 14.5 -53t37.5 -21q24 0 37.5 20.5t13.5 53.5q0 35 -14 54t-39 19zM378 630h46l-276 -405h-47zM397 217
q-45 0 -72 34.5t-27 85.5q0 25 7 46.5t20 37.5t31 25t41 9q50 0 75.5 -34t25.5 -84q0 -51 -26 -85.5t-75 -34.5zM397 410q-22 0 -36 -18t-14 -55q0 -32 14.5 -53t37.5 -21q24 0 37.5 20.5t13.5 53.5q0 35 -14.5 54t-38.5 19z" />
    <glyph glyph-name="grave.cap" 
d="M125 895l137 -137h-89l-164 137h116z" />
    <glyph glyph-name="acute.cap" 
d="M407 895l-171 -137h-91l147 137h115z" />
    <glyph glyph-name="circumflex.cap" 
d="M249 889l130 -131h-93l-84 83l-89 -83h-92l136 131h92z" />
    <glyph glyph-name="tilde.cap" 
d="M30 766v22q0 55 23.5 76.5t62.5 21.5q23 0 46 -8.5t44 -18t39 -18t32 -8.5t23 9t9 34v12h61v-21q0 -59 -22.5 -81t-62.5 -22q-22 0 -44 8.5t-43 18t-40 18t-35 8.5q-13 0 -21 -7.5t-8 -26.5v-17h-64z" />
    <glyph glyph-name="dieresis.cap" 
d="M64 770v110h77v-110h-77zM260 770v110h76v-110h-76z" />
    <glyph glyph-name="macron.cap" 
d="M340 845v-69h-280v69h280z" />
    <glyph glyph-name="uni0300" horiz-adv-x="0" 
d="M-23 744l128 -153h-83l-154 153h109z" />
    <glyph glyph-name="uni0301" horiz-adv-x="0" 
d="M131 744l-154 -153h-82l128 153h108z" />
    <glyph glyph-name="uni0302" horiz-adv-x="0" 
d="M41 734l111 -152h-86l-67 101l-66 -101h-85l110 152h83z" />
    <glyph glyph-name="uni0303" horiz-adv-x="0" 
d="M-155 605v23q0 54 22 75t59 21q21 0 40.5 -7.5t37 -17t33 -17t29.5 -7.5t21 8.5t7 33.5v10h61v-21q0 -57 -22.5 -79.5t-60.5 -22.5q-21 0 -39.5 8t-35.5 17t-32.5 17t-31.5 8q-13 0 -19.5 -7.5t-6.5 -25.5v-16h-62z" />
    <glyph glyph-name="uni0304" horiz-adv-x="0" 
d="M138 699v-71h-277v71h277z" />
    <glyph glyph-name="uni0308" horiz-adv-x="0" 
d="M-130 625v109h77v-109h-77zM53 625v109h76v-109h-76z" />
    <glyph glyph-name="uni030A" horiz-adv-x="0" 
d="M0 566q-50 0 -78.5 28t-28.5 69q0 40 28 69.5t79 29.5q50 0 78 -28t28 -70t-29 -70t-77 -28zM0 611q26 0 39 16t13 36t-12.5 37t-39.5 17t-39.5 -16t-12.5 -36t12 -37t40 -17z" />
    <glyph glyph-name="uni0327" horiz-adv-x="0" 
d="M47 0l-41 -51q13 -2 30 -7.5t32 -16t25 -28t10 -42.5q0 -30 -12 -48.5t-30 -29.5t-40 -15t-42 -4q-26 0 -44 3.5t-28 8.5v60q12 -5 32.5 -8t32.5 -3q53 0 53 35q0 14 -9 22.5t-23 13.5t-33 7t-38 2v28l63 83z" />
    <glyph glyph-name="uni0331" horiz-adv-x="0" 
d="M138 -97v-71h-277v71h277z" />
    </font>
</defs>
</svg>
